<svg width="277" height="193" viewBox="0 0 277 193" fill="none" xmlns="http://www.w3.org/2000/svg">
<g opacity="0.56">
<path d="M143.766 125.87C143.766 99.6467 150.061 75.5217 162.65 53.4946C174.889 31.4674 192.024 13.6359 214.055 0L241.331 22.0272C237.135 26.2228 232.239 31.9919 226.644 39.3342C220.699 46.6766 217.202 53.4946 216.153 59.788C224.896 60.4873 232.938 62.76 240.282 66.606C247.626 70.452 254.095 75.1721 259.69 80.7663C264.936 86.7101 269.132 93.5281 272.279 101.22C275.426 108.912 277 117.129 277 125.87C277 134.96 275.252 143.526 271.755 151.568C268.258 159.959 263.537 167.127 257.592 173.071C251.647 179.364 244.653 184.259 236.61 187.755C228.567 191.252 220 193 210.908 193C201.816 193 193.248 191.252 185.205 187.755C176.813 184.259 169.644 179.364 163.699 173.071C157.404 167.127 152.509 159.959 149.012 151.568C145.515 143.526 143.766 134.96 143.766 125.87Z" fill="#E6E9ED"/>
<path d="M0 125.87C0 99.6467 6.29449 75.5217 18.8835 53.4946C31.1228 31.4674 48.2578 13.6359 70.2886 0L97.5648 22.0272C93.3684 26.2228 88.4727 31.9919 82.8776 39.3342C76.9328 46.6766 73.4358 53.4946 72.3867 59.788C81.1291 60.4873 89.1721 62.76 96.5157 66.606C103.859 70.452 110.329 75.1721 115.924 80.7663C121.169 86.7101 125.365 93.5281 128.513 101.22C131.66 108.912 133.234 117.129 133.234 125.87C133.234 134.96 131.485 143.526 127.988 151.568C124.491 159.959 119.77 167.127 113.826 173.071C107.881 179.364 100.887 184.259 92.8439 187.755C84.8009 191.252 76.2334 193 67.1413 193C58.0493 193 49.4818 191.252 41.4388 187.755C33.0461 184.259 25.8774 179.364 19.9326 173.071C13.6381 167.127 8.74237 159.959 5.24542 151.568C1.74847 143.526 0 134.96 0 125.87Z" fill="#E6E9ED"/>
</g>
</svg>
