<svg width="55" height="54" viewBox="0 0 55 54" fill="none" xmlns="http://www.w3.org/2000/svg">
<path d="M21.1186 5.94055C22.2098 2.59672 23.2872 0.529076 24.1239 0.175709C25.1071 -0.239865 28.9583 0.106335 32.7914 0.954614C36.1211 1.69151 39.5325 2.81912 39.8167 3.27638C39.9024 3.41449 38.4622 4.12256 36.6164 4.85013C31.7195 6.78054 25.492 9.92605 22.1259 12.1698C20.5081 13.2479 19.1426 14.0171 19.0914 13.8788C18.9639 13.5357 20.1282 8.97683 21.1186 5.94055Z" fill="#AAB2BD"/>
<path d="M3.04393 16.9657C3.57891 15.1903 7.35705 9.71293 9.85331 7.09437C11.0286 5.86089 12.0996 4.85199 12.2333 4.85199C12.3665 4.85199 12.3841 7.47667 12.2713 10.6843C12.0616 16.6817 12.4267 22.7633 13.2245 26.5485C13.4498 27.6181 13.5851 28.4928 13.5254 28.4928C13.2315 28.4928 5.89917 22.2151 4.89804 21.1065C2.82265 18.8082 2.62306 18.3622 3.04393 16.9657Z" fill="#AAB2BD"/>
<path d="M35.495 13.4858C36.0072 13.1925 42.0343 11.7097 44.5212 11.265C49.1293 10.4418 49.8216 10.595 51.0555 12.7119C52.639 15.4288 55 23.5079 55 26.2099C55 26.902 54.7739 26.7803 52.4193 24.8221C47.3507 20.6059 43.2648 17.8331 38.3103 15.2479C36.6148 14.3631 35.3482 13.57 35.495 13.4858Z" fill="#AAB2BD"/>
<path d="M42.4791 46.1907C43.4971 41.1569 44.0929 34.8134 43.9908 30.0934C43.9386 27.6727 43.9857 25.6922 44.0958 25.6925C44.4301 25.6936 49.8028 31.6178 51.5165 33.8751C53.5073 36.4973 53.574 37.3229 51.984 39.6708C50.4621 41.918 46.2122 46.3077 43.9292 47.9906C42.9152 48.7376 42.0397 49.3032 41.9835 49.2472C41.9272 49.1913 42.1501 47.8158 42.4791 46.1907Z" fill="#AAB2BD"/>
<path d="M4.16695 42.0464C2.59815 39.3844 0.588659 32.9743 0.116626 29.1268C-0.0821528 27.5044 -0.065812 27.4503 0.475338 27.9232C5.28354 32.1237 12.3528 37.0296 16.9563 39.3605L19.975 40.8886L18.3044 41.3716C13.1926 42.8496 7.50762 43.8703 5.97445 43.5855C5.20451 43.4424 4.77347 43.0753 4.16695 42.0464Z" fill="#AAB2BD"/>
<path d="M17.3922 50.4202C21.8875 48.7525 30.4344 44.0861 33.9693 41.3695C35.128 40.4789 36.1811 39.7374 36.3102 39.7209C36.6676 39.6756 36.6103 40.1021 35.735 44.0085C34.6468 48.8647 33.4895 52.2761 32.609 53.2208C31.9523 53.9254 31.6464 54 29.4205 54C28.0665 54 25.6316 53.7752 24.0098 53.4997C20.8955 52.9717 16.3493 51.6713 16.0755 51.2307C15.986 51.0868 16.5786 50.7221 17.3922 50.4202Z" fill="#AAB2BD"/>
</svg>
