<svg width="240" height="240" viewBox="0 0 240 240" fill="none" xmlns="http://www.w3.org/2000/svg">
<rect width="240" height="240" rx="120" fill="#F5F7FA"/>
<mask id="mask0_236_1234" style="mask-type:alpha" maskUnits="userSpaceOnUse" x="0" y="0" width="240" height="240">
<rect width="240" height="240" rx="120" fill="#F5F7FA"/>
</mask>
<g mask="url(#mask0_236_1234)">
<path d="M112.11 94.3472C113.459 90.1984 114.791 87.633 115.826 87.1946C117.041 86.679 121.803 87.1085 126.542 88.161C130.659 89.0753 134.877 90.4744 135.228 91.0417C135.334 91.2131 133.553 92.0916 131.271 92.9943C125.217 95.3895 117.517 99.2922 113.356 102.076C111.355 103.414 109.667 104.368 109.604 104.197C109.446 103.771 110.886 98.1145 112.11 94.3472Z" fill="#CCD1D9"/>
<path d="M89.7634 108.027C90.4248 105.824 95.096 99.0278 98.1823 95.7788C99.6353 94.2484 100.96 92.9966 101.125 92.9966C101.289 92.9966 101.311 96.2532 101.172 100.233C100.913 107.674 101.364 115.22 102.35 119.916C102.629 121.244 102.796 122.329 102.722 122.329C102.359 122.329 93.2935 114.54 92.0558 113.164C89.4898 110.313 89.2431 109.759 89.7634 108.027Z" fill="#CCD1D9"/>
<path d="M129.885 103.709C130.518 103.345 137.97 101.505 141.044 100.954C146.742 99.9322 147.598 100.122 149.123 102.749C151.081 106.12 154 116.144 154 119.496C154 120.355 153.72 120.204 150.809 117.774C144.543 112.543 139.491 109.103 133.365 105.895C131.269 104.797 129.703 103.813 129.885 103.709Z" fill="#CCD1D9"/>
<path d="M138.52 144.287C139.778 138.042 140.515 130.171 140.389 124.315C140.324 121.311 140.382 118.854 140.518 118.854C140.932 118.856 147.574 126.206 149.693 129.007C152.154 132.26 152.237 133.285 150.271 136.198C148.39 138.986 143.135 144.432 140.312 146.52C139.059 147.447 137.976 148.149 137.907 148.08C137.837 148.01 138.113 146.304 138.52 144.287Z" fill="#CCD1D9"/>
<path d="M91.1519 139.145C89.2123 135.842 86.7278 127.889 86.1442 123.115C85.8984 121.102 85.9186 121.035 86.5877 121.622C92.5324 126.834 101.273 132.921 106.964 135.813L110.696 137.709L108.631 138.308C102.311 140.142 95.2821 141.408 93.3866 141.055C92.4347 140.877 91.9017 140.422 91.1519 139.145Z" fill="#CCD1D9"/>
<path d="M107.503 149.535C113.061 147.466 123.628 141.676 127.998 138.305C129.431 137.2 130.733 136.28 130.893 136.26C131.334 136.204 131.264 136.733 130.182 141.58C128.836 147.605 127.405 151.838 126.317 153.01C125.505 153.884 125.126 153.977 122.374 153.977C120.7 153.977 117.69 153.698 115.685 153.356C111.834 152.701 106.214 151.087 105.875 150.541C105.765 150.362 106.497 149.91 107.503 149.535Z" fill="#CCD1D9"/>
</g>
</svg>
