<svg width="13" height="13" viewBox="0 0 13 13" fill="none" xmlns="http://www.w3.org/2000/svg">
<path d="M13.0088 9.71477C13.0088 10.1904 12.6301 10.5515 12.2073 10.5515C11.7757 10.5515 11.4146 10.164 11.4146 9.75V6.49119L11.5732 2.37805L10.1199 4.02507L1.37398 12.7622C1.21545 12.9295 1.02168 13 0.819106 13C0.378726 13 0 12.6037 0 12.1809C0 11.9871 0.0880759 11.7846 0.246612 11.626L8.97493 2.88008L10.6131 1.44444L6.31504 1.58537H3.25C2.83604 1.58537 2.45732 1.22425 2.45732 0.80149C2.45732 0.378726 2.79201 0 3.28523 0H12.1457C12.6741 0 13 0.352304 13 0.854336L13.0088 9.71477Z" fill="#222222"/>
</svg>
