<svg width="888" height="875" viewBox="0 0 888 875" fill="none" xmlns="http://www.w3.org/2000/svg">
<g opacity="0.96">
<path d="M340.97 96.2589C358.587 42.0764 375.983 8.573 389.491 2.84713C405.365 -3.88671 467.546 1.72302 529.432 15.4683C583.191 27.4087 638.27 45.6801 642.859 53.0896C644.243 55.3274 620.99 66.8007 591.189 78.59C512.126 109.87 411.58 160.839 357.233 197.195C331.112 214.666 309.066 227.128 308.24 224.888C306.181 219.328 324.979 145.458 340.97 96.2589Z" fill="#F77F1E"/>
<path d="M49.1456 274.907C57.7832 246.14 118.783 157.385 159.086 114.955C178.061 94.9682 195.354 78.6202 197.512 78.6202C199.662 78.6202 199.947 121.15 198.126 173.125C194.74 270.305 200.635 368.85 213.516 430.184C217.153 447.516 219.338 461.688 218.373 461.688C213.628 461.688 95.2447 359.966 79.081 342.004C45.5729 304.762 42.3505 297.536 49.1456 274.907Z" fill="#F77F1E"/>
<path d="M573.083 218.52C581.353 213.768 678.664 189.74 718.815 182.535C793.215 169.196 804.392 171.678 824.314 205.98C849.881 250.003 888 380.916 888 424.697C888 435.912 884.349 433.939 846.334 402.211C764.499 333.892 698.53 288.963 618.538 247.072C591.163 232.736 570.713 219.885 573.083 218.52Z" fill="#F77F1E"/>
<path d="M685.844 748.46C702.28 666.894 711.899 564.105 710.251 487.624C709.408 448.401 710.169 416.31 711.947 416.314C717.345 416.331 804.089 512.325 831.758 548.901C863.899 591.392 864.976 604.77 839.306 642.814C814.734 679.227 746.117 750.356 709.257 777.625C692.885 789.729 678.75 798.894 677.842 797.988C676.934 797.081 680.532 774.793 685.844 748.46Z" fill="#F77F1E"/>
<path d="M67.2773 681.308C41.9483 638.174 9.50417 534.306 1.88298 471.962C-1.32639 445.673 -1.06256 444.796 7.67456 452.459C85.3052 520.522 199.441 600.017 273.767 637.785L322.505 662.547L295.532 670.373C213.001 694.323 121.214 710.861 96.4601 706.246C84.0292 703.928 77.0698 697.979 67.2773 681.308Z" fill="#F77F1E"/>
<path d="M280.805 816.995C353.383 789.971 491.378 714.357 548.45 670.339C567.157 655.907 584.16 643.894 586.245 643.626C592.015 642.892 591.089 649.803 576.958 713.101C559.389 791.789 540.704 847.066 526.487 862.373C515.885 873.791 510.946 875 475.007 875C453.147 875 413.834 871.357 387.648 866.893C337.367 858.337 263.966 837.266 259.546 830.126C258.101 827.795 267.669 821.886 280.805 816.995Z" fill="#F77F1E"/>
</g>
</svg>
