<svg width="200" height="48" viewBox="0 0 200 48" fill="none" xmlns="http://www.w3.org/2000/svg">
<path fill-rule="evenodd" clip-rule="evenodd" d="M32.2941 0.0380401C32.7516 0.0380401 32.9639 0.0579321 32.9172 0.104181C32.8839 0.1375 32.0753 0.322993 31.1334 0.50202C28.0238 1.11221 25.4905 1.702 23.3293 2.31865C19.6955 3.36646 16.0026 4.99064 13.2639 6.73467C9.82261 8.92925 7.07752 11.7276 5.44638 14.7049C5.28724 14.9898 5.13457 15.2355 5.10821 15.2554C5.0749 15.2753 5.12164 15.0301 5.20767 14.7119C5.87057 12.2318 7.25655 9.95767 9.41831 7.78944C11.2484 5.95938 13.2774 4.51373 15.7902 3.25408C18.0116 2.14012 20.8691 1.2052 23.9061 0.608442C25.8819 0.217068 29.2173 -0.0614198 30.9678 0.0116832C31.3124 0.0251103 31.9092 0.0380401 32.2941 0.0380401ZM55.2693 1.68907C57.3316 1.80196 57.7424 1.84174 57.5569 1.90142C57.4639 1.93474 55.2892 2.34551 52.7167 2.82292C50.1436 3.30032 47.2066 3.8573 46.1851 4.05622C35.616 6.13145 28.9254 8.16739 22.7788 11.1775C19.1649 12.9479 16.745 14.5458 14.7359 16.5086C13.0849 18.1198 11.8581 19.8171 10.8107 21.9525C9.72315 24.167 9.17314 26.0304 8.81508 28.6825C8.63606 29.9819 8.57638 32.6544 8.68927 34.2124C8.73552 34.8555 8.75541 35.3995 8.73552 35.4194C8.72209 35.4393 8.47046 35.1742 8.18501 34.8361C6.58718 32.9264 5.58562 30.6453 5.12811 27.854C4.96251 26.833 4.96251 24.3197 5.12811 23.2589C5.40659 21.5283 5.87058 20.0563 6.64636 18.4784C7.93934 15.8661 10.3398 13.0414 12.9586 11.0786C18.9794 6.56957 27.0157 3.63252 36.8687 2.33258C38.2746 2.14709 40.3563 1.92827 41.4106 1.86164C41.613 1.84672 41.8193 1.83031 41.981 1.81688C42.1108 1.80644 42.2117 1.79798 42.259 1.795C42.3584 1.78157 43.1342 1.73532 43.9831 1.69554C44.3809 1.67664 44.7932 1.65774 45.1443 1.64183H45.1458C45.5377 1.62393 45.8529 1.60951 45.9857 1.60254C46.8943 1.55629 54.0952 1.6289 55.2683 1.68858L55.2693 1.68907ZM33.0236 10.5475C34.0515 10.72 35.1257 10.9717 36.0074 11.2571C36.8165 11.5157 37.5525 11.8404 37.6251 11.9668C37.6515 12.0001 37.5257 12.0796 37.3531 12.1458C33.9053 13.4054 30.5764 15.0898 28.5807 16.5817C28.2689 16.8139 28.0103 16.9795 27.9974 16.9532C27.9711 16.8801 28.3356 15.3882 28.6538 14.2479C29.2969 11.9404 29.8538 10.6937 30.3382 10.4684C30.5903 10.349 32.1086 10.3953 33.0236 10.548V10.5475ZM25.2389 12.7157C25.0733 13.7366 25.0067 17.9209 25.133 19.4989C25.226 20.6591 25.3781 21.8128 25.5373 22.6085C25.6104 22.9665 25.6631 23.2848 25.6502 23.3181C25.6303 23.3843 24.1185 22.2042 23.1373 21.3488C22.2884 20.6063 21.1416 19.4193 20.9228 19.0413C20.7771 18.7962 20.7438 18.6699 20.7702 18.451C20.8433 17.8409 21.7314 16.3092 22.8852 14.8242C23.6674 13.8162 24.9803 12.5033 25.2125 12.5033C25.2459 12.5033 25.2588 12.6028 25.2389 12.7157ZM42.1471 15.5602C42.8567 16.243 44.0701 19.7575 44.2954 21.78L44.2979 21.8028C44.3491 22.2469 44.3765 22.4827 44.2969 22.5274C44.2069 22.5781 43.9801 22.3852 43.4977 21.9744L43.4798 21.959C41.0396 19.8902 38.5531 18.2128 36.2456 17.079L35.1978 16.5618L35.5822 16.4489C36.9085 16.0645 38.745 15.6269 39.7198 15.4608C40.6611 15.3016 40.7009 15.3016 41.331 15.3151C41.8944 15.3285 41.9143 15.335 42.1466 15.5602H42.1471ZM106.478 17.9209L106.491 19.8639H97.5397V23.4444H105.695V27.025H97.5397V30.4728H106.491L106.478 32.4087L106.458 34.3517L99.9134 34.3716L93.3624 34.385V15.9516L99.9134 15.965L106.458 15.9849L106.478 17.9209ZM70.4533 16.1635C70.52 16.442 72.8006 28.2444 72.8473 28.5497C72.8871 28.7884 72.907 28.8148 72.9468 28.7153C72.9796 28.6422 73.371 27.1637 73.8285 25.4331C73.9673 24.9 74.1334 24.263 74.3094 23.5857L74.3124 23.5752C74.7077 22.056 75.1548 20.3378 75.4661 19.1478L76.2817 16.0183L78.4967 16.0317L80.7176 16.0516L82.4616 22.4105L82.661 23.1341C83.5298 26.2925 84.2131 28.776 84.2256 28.7824C84.2385 28.7959 84.7691 25.9578 85.4056 22.4702C86.0422 18.9891 86.5857 16.1113 86.6056 16.0784C86.6255 16.0386 87.5873 16.0252 88.9927 16.0322L91.3533 16.0521L90.3453 20.5611C89.7883 23.0411 88.8803 27.0991 88.3298 29.5786C88.1726 30.2783 88.0229 30.9467 87.8882 31.5464L87.8842 31.5658C87.544 33.0816 87.3028 34.1572 87.2889 34.2C87.2556 34.3129 87.0631 34.3194 84.4772 34.3194C81.8912 34.3194 81.6993 34.3129 81.666 34.2C81.6485 34.1483 81.4103 33.2422 81.1085 32.094L80.9697 31.5678L80.7126 30.5871C79.2406 24.9776 78.5688 22.417 78.5563 22.4041C78.5494 22.3976 77.8865 24.9836 77.0908 28.1394C76.7691 29.409 76.4672 30.6016 76.219 31.5812V31.5827C75.849 33.0438 75.5989 34.0329 75.579 34.1006L75.5193 34.3194H72.7409C71.2092 34.3194 69.956 34.2995 69.956 34.2731C69.956 34.2333 68.3383 27.1254 67.1383 21.8869C67.0379 21.4458 66.9081 20.8774 66.7733 20.2891V20.2856L66.7718 20.2821C66.5953 19.5103 66.4113 18.7047 66.276 18.1074C66.0373 17.0467 65.8319 16.1446 65.812 16.0983C65.7922 16.0386 66.276 16.0188 68.0996 16.0188H70.4205L70.4533 16.1645V16.1635ZM42.0675 24.8433C42.7771 25.6922 43.4003 26.6073 43.5062 26.9583C43.6121 27.3164 43.5196 27.6148 43.1083 28.2314C42.1401 29.6701 39.9321 31.8851 38.7654 32.5878C38.5601 32.7136 38.381 32.8001 38.3676 32.7867C38.3542 32.7733 38.4138 32.4286 38.5004 32.0308C38.7326 30.9566 38.9713 29.4647 39.1235 28.1852C39.2627 26.9917 39.402 24.3595 39.3557 23.8885C39.3423 23.7358 39.3095 23.2187 39.2961 22.7482L39.2563 21.8864L40.3767 23.0202C40.9869 23.6503 41.7492 24.4659 42.0675 24.8438V24.8433ZM20.7567 23.8816C23.197 25.9105 26.2932 27.9196 28.2426 28.7417C28.4415 28.8277 28.5743 28.9142 28.541 28.947C28.448 29.04 26.0679 29.6567 24.8346 29.9153C23.4755 30.1938 22.3148 30.2798 21.9438 30.1276C21.4927 29.9352 20.8761 28.7287 20.2729 26.8519C19.789 25.3401 19.3911 23.2848 19.5234 22.9466C19.5632 22.8407 19.603 22.8536 19.8482 23.0923C20.0008 23.238 20.4116 23.5961 20.7567 23.8816ZM36.0139 28.6954C35.4967 31.447 34.7806 33.8808 34.3096 34.4974C34.0048 34.8952 33.8123 34.935 32.493 34.8952C30.9151 34.842 29.2108 34.5571 27.8646 34.1195C27.155 33.8942 26.5518 33.6023 26.6313 33.5292C26.6646 33.5028 26.87 33.4098 27.0888 33.3238C29.9732 32.1899 33.4478 30.2604 35.4435 28.6954C35.7682 28.4368 36.0467 28.2379 36.0666 28.2513C36.08 28.2712 36.0532 28.4701 36.0134 28.6954H36.0139Z" fill="#F5F7FA"/>
<path fill-rule="evenodd" clip-rule="evenodd" d="M118.512 15.952C119.792 16.1509 120.986 16.4692 121.768 16.8138L122.139 16.9794V20.9578L121.668 20.7191C120.17 19.9697 117.803 19.4992 115.906 19.5852C114.673 19.6385 113.97 19.8304 113.459 20.268C112.797 20.825 112.836 21.9922 113.539 22.476C113.984 22.7744 114.355 22.8605 116.57 23.1787C118.744 23.4836 119.5 23.6561 120.322 24.0406C121.728 24.6836 122.63 25.7513 122.975 27.1571C123.14 27.827 123.14 29.3786 122.975 30.0415C122.411 32.3489 120.461 33.9204 117.564 34.4242C115.137 34.8419 112.007 34.5236 109.912 33.6484L109.342 33.4097V31.4269C109.342 29.6033 109.349 29.4512 109.455 29.491C109.514 29.5173 109.707 29.6038 109.872 29.6834C110.324 29.9022 111.444 30.2802 112.08 30.4328C114.109 30.9237 116.397 30.9565 117.564 30.5124C118.32 30.2275 118.758 29.6372 118.758 28.9146C118.758 28.192 118.366 27.6813 117.637 27.4227C117.338 27.3168 116.158 27.1178 114.368 26.8657C111.464 26.448 109.866 25.5464 109.017 23.8357C108.679 23.1529 108.586 22.6819 108.586 21.654C108.586 20.8917 108.606 20.6331 108.732 20.2084C109.435 17.7617 111.597 16.23 114.885 15.852C115.608 15.7725 117.723 15.8257 118.512 15.9515V15.952ZM130.679 16.9267C131.23 18.1336 133.385 22.9276 134.592 25.613C134.943 26.4087 135.255 27.0517 135.274 27.0587C135.301 27.0587 135.586 26.4818 135.918 25.7791C135.991 25.6249 136.09 25.4171 136.207 25.1699L136.211 25.1615C136.625 24.2917 137.265 22.9455 137.821 21.7873C138.537 20.2889 139.253 18.797 139.412 18.4718C139.467 18.3579 139.54 18.2038 139.623 18.0297C139.781 17.696 139.973 17.2912 140.135 16.96L140.566 16.0514H145.015V34.3521H140.891L140.93 29.3925C140.95 26.6673 140.99 24.1674 141.003 23.8426L141.043 23.2459L140.367 24.5722C140.002 25.3017 139.074 27.1382 138.305 28.65C137.542 30.1618 136.886 31.4349 136.846 31.4811C136.793 31.5473 136.402 31.5672 135.261 31.5672H133.743L131.747 27.5823C130.653 25.3877 129.745 23.6039 129.731 23.6174C129.718 23.6308 129.738 24.0485 129.764 24.5388C129.798 25.0297 129.824 27.4431 129.831 29.8898V34.3521H125.72V16.0514H130.275L130.679 16.9267ZM158.84 17.51C159.138 18.2923 160.046 20.6793 160.856 22.8147L161.159 23.6099L161.161 23.6139C161.892 25.528 162.646 27.5018 162.931 28.2517C163.162 28.8604 163.424 29.5432 163.606 30.0181L163.607 30.0226L163.612 30.035C163.683 30.2195 163.741 30.3712 163.78 30.4731C163.857 30.675 164.003 31.0619 164.171 31.5065C164.306 31.8651 164.456 32.2614 164.595 32.6284C164.708 32.9243 164.816 33.2078 164.909 33.4519V33.4529L164.909 33.4534C165.074 33.8866 165.193 34.1969 165.205 34.2397C165.252 34.3456 165.126 34.3525 162.951 34.3391L160.65 34.3192L160.332 33.4241C160.153 32.9333 159.881 32.1644 159.722 31.7134L159.437 30.9043H152.468L152.322 31.3155C152.262 31.4767 152.109 31.9004 151.935 32.3842C151.858 32.5966 151.777 32.8209 151.699 33.0392L151.228 34.3521H149.086C147.906 34.3521 146.938 34.3322 146.938 34.3123C146.938 34.2725 148.881 28.9151 149.756 26.528C149.939 26.0402 150.251 25.1828 150.485 24.5379H150.485L150.545 24.3732C150.708 23.9122 151.129 22.758 151.6 21.469C151.8 20.922 152.008 20.3511 152.209 19.7981C152.576 18.7975 152.914 17.8735 153.155 17.2156C153.362 16.6487 153.497 16.2797 153.515 16.2305L153.582 16.0514L155.942 16.0649L158.296 16.0848L158.84 17.5105V17.51ZM177.479 16.1509C180.105 16.5423 181.868 18.0272 182.518 20.3944C182.684 21.0045 182.717 22.5293 182.578 23.2255C182.134 25.4201 180.436 27.0845 178.168 27.5286L177.75 27.6082L178.142 27.7872C178.917 28.1453 179.773 28.9275 180.37 29.8495C180.549 30.1146 182.949 34.0069 183.121 34.2988C183.135 34.3322 182.074 34.3521 180.767 34.3521H178.38L178.195 34.0338C177.558 32.9333 175.642 29.8629 175.35 29.4721C174.541 28.3914 173.891 28.0995 172.234 28.093L171.305 28.0866L171.285 31.2161L171.273 34.3526H167.161V16.0519H171.975C175.973 16.0519 176.908 16.0718 177.479 16.1514V16.1509ZM199.452 17.9412V19.8309L196.655 19.8443L193.85 19.8642L193.83 27.1049L193.817 34.3521H189.705V19.8309H184.07V16.0514H199.452V17.9412ZM155.598 22.304C155.505 22.5546 155.359 22.953 155.19 23.414C154.962 24.0386 154.691 24.7785 154.45 25.427C154.039 26.5474 153.701 27.4824 153.701 27.4958C153.701 27.5092 154.735 27.5221 155.995 27.5221C158.157 27.5221 158.29 27.5157 158.243 27.4028C158.157 27.184 157.666 25.8249 157.441 25.1684C157.337 24.8676 157.196 24.4802 157.102 24.2201H157.102C157.083 24.1649 157.065 24.1156 157.05 24.0744C156.97 23.87 156.774 23.3145 156.577 22.759C156.544 22.6665 156.512 22.5735 156.479 22.483C156.254 21.8465 156.055 21.3029 156.028 21.2761C156.002 21.2497 155.809 21.7072 155.598 22.304ZM171.273 24.8039V19.9637H173.547C174.793 19.9637 176 19.997 176.232 20.0298C177.545 20.2486 178.255 21.0642 178.261 22.3836C178.261 22.9007 178.235 23.0335 178.076 23.3916C177.757 24.0878 177.094 24.5786 176.245 24.7378C176.053 24.7711 174.86 24.8039 173.586 24.8039H171.273Z" fill="#FB9414"/>
<path d="M56.1897 10.9396C55.7988 10.2832 55.7655 10.2369 55.2483 9.57354C55.0757 9.35473 54.7908 9.0101 54.6117 8.81118L54.287 8.45312L54.3268 8.78482C54.3467 8.96385 54.4064 9.81921 54.4461 10.688C54.7709 16.9276 53.2591 22.4904 50.043 26.8537C48.6839 28.6972 46.9001 30.4606 44.8915 31.9396C41.5298 34.4261 35.3568 37.3701 29.5414 39.2732C23.3883 41.2823 18.4352 42.4495 6.76508 44.6242C4.63017 45.022 2.20335 45.4731 1.37435 45.6322C0.35986 45.8247 -0.0911902 45.9306 0.0152319 45.9569C0.247471 46.0301 2.75386 46.1424 5.99625 46.229C12.3219 46.3946 18.8927 46.0236 24.456 45.1812C34.0106 43.7425 41.9475 40.891 48.1409 36.6739C52.8951 33.4315 56.2896 29.2278 57.6557 24.8715C59.1476 20.1237 58.6041 14.9588 56.1902 10.9406L56.1897 10.9396Z" fill="#FB9414"/>
<path d="M55.6907 36.8339C56.8643 35.1963 57.8191 33.22 58.2503 31.5491C58.3099 31.3303 58.3497 31.1378 58.3363 31.1314C58.3234 31.118 58.1707 31.3636 57.9917 31.6819C56.924 33.5716 55.6444 35.1963 53.8676 36.9334C50.4392 40.2752 45.7581 42.9343 39.8174 44.9165C37.404 45.7256 33.538 46.6934 30.3155 47.3036L30.2279 47.3205C29.3607 47.4886 28.3869 47.6775 28.0279 47.7611L27.3516 47.9068L27.7827 47.9466C29.016 48.0659 32.159 47.9799 34.2809 47.7675C37.762 47.4229 41.5614 46.4746 44.6446 45.195C49.1934 43.2988 53.2643 40.2155 55.6912 36.8339H55.6907Z" fill="#FB9414"/>
</svg>
