<svg width="109" height="27" viewBox="0 0 109 27" fill="none" xmlns="http://www.w3.org/2000/svg">
<path d="M13.5484 0.0434494C12.0084 0.156685 10.1796 0.666241 8.8095 1.35697C7.32612 2.09866 5.71819 3.32159 4.64246 4.52188C3.78188 5.47305 2.62123 7.14326 2.12866 8.1284C1.77197 8.84178 0.47543 11.8255 0.362196 12.1879C0.0904325 13.0937 -0.0114786 14.277 0.130065 15.0131C0.384842 16.3606 1.58513 17.2891 3.54975 17.6628C4.76136 17.8949 5.06143 17.9005 14.9298 17.8836L24.4415 17.8666L25.1379 16.3096C25.5229 15.4547 25.8343 14.7356 25.8343 14.713C25.8343 14.6903 23.0657 14.662 19.68 14.6507C14.0409 14.6337 13.4861 14.6224 13.1011 14.5318C11.9348 14.2544 11.3856 13.8128 11.2214 13.0315C11.1082 12.4709 11.2157 12.1539 12.6255 8.96634C13.8315 6.26003 13.939 6.03356 14.2561 5.65422C15.0657 4.68607 16.266 3.96703 17.6644 3.60468C18.7232 3.32725 18.7741 3.32725 25.0417 3.29328L30.9525 3.25931L31.6489 1.67403C32.0339 0.802122 32.3453 0.0717583 32.3453 0.0491123C32.3453 0.00381851 14.0862 0.00381851 13.5484 0.0434494Z" fill="#0087B6"/>
<path d="M39.288 8.62164C37.1818 13.3662 35.3927 17.3917 35.3191 17.5672L35.1719 17.8956H40.6241H46.0707L47.7126 14.1871L49.3545 10.4787H49.6942H50.0396L50.4585 14.2437L50.8832 18.0088H56.3184H61.7594L61.7424 17.822C61.6914 17.3124 61.1026 10.6259 61.1026 10.5636C61.1026 10.5183 61.2951 10.4844 61.7424 10.4617C62.5463 10.4164 63.1408 10.2635 63.8032 9.94082C64.7431 9.47656 65.5357 8.74054 66.2661 7.65349C67.189 6.26636 67.4098 5.58695 67.4098 4.08093C67.4098 3.23167 67.4041 3.18638 67.2229 2.6655C66.9795 1.95778 66.8379 1.72565 66.4359 1.35198C65.8018 0.768822 64.7431 0.372501 63.1691 0.140369C62.5407 0.0497818 61.7537 0.0384598 52.8025 0.0214729L43.1153 -0.00117302L39.288 8.62164ZM58.1019 3.34491C59.3531 3.42417 60.0835 3.64498 60.5591 4.08093C60.8422 4.34704 61.0063 4.69806 61.0063 5.06041C61.0063 5.36615 60.4968 6.52114 60.2194 6.84952C59.9533 7.16092 59.4267 7.41003 58.8945 7.47797C58.2717 7.55724 50.7416 7.55157 50.7416 7.47231C50.7416 7.43834 51.1549 6.48151 51.6588 5.34916L52.5704 3.28829H54.9256C56.2222 3.28829 57.6489 3.3166 58.1019 3.34491Z" fill="#0087B6"/>
<path d="M87.9977 0.0725422C86.4464 0.214087 84.7422 0.723642 83.3551 1.454C80.9319 2.73356 78.922 4.70384 77.331 7.36485C77.0649 7.80647 76.595 8.77462 76.0854 9.91829C74.9984 12.3698 74.8398 12.9077 74.8398 14.1306C74.8398 14.7308 74.8625 14.9402 74.9644 15.2743C75.423 16.7577 76.9403 17.6069 79.5617 17.839C80.0543 17.8843 83.1569 17.8957 89.7415 17.8843L99.2136 17.8674L100.148 15.7442C100.663 14.5779 101.659 12.3415 102.356 10.7789C103.052 9.21624 103.624 7.92536 103.624 7.90271C103.624 7.88573 102.18 7.88007 100.414 7.88573L97.2093 7.90271L95.7033 11.2828L94.203 14.6685H91.5929C88.4167 14.6685 87.7939 14.6119 86.9786 14.2382C86.084 13.8305 85.7387 12.9417 86.0954 11.9509C86.2029 11.6451 88.2242 7.05346 88.6262 6.20986C88.7847 5.87015 89.515 5.0945 90.0472 4.70384C90.8739 4.08671 92.0175 3.63377 93.2744 3.42429C93.7897 3.33936 94.5596 3.32238 99.7911 3.29407L105.725 3.2601L106.427 1.65216C106.817 0.763273 107.134 0.0329113 107.134 0.0215874C107.134 -0.0237064 88.4733 0.0272484 87.9977 0.0725422Z" fill="#0087B6"/>
<path d="M30.9963 13.712C29.9206 13.8479 28.9977 14.3744 28.4712 15.1387C28.3523 15.3086 28.0182 15.9993 27.7295 16.6731L27.1973 17.896H28.8052C30.6339 17.896 30.985 17.8507 31.653 17.5223C32.123 17.2959 32.6948 16.7863 32.9666 16.3673C33.1081 16.1465 34.2121 13.7573 34.2121 13.6723C34.2121 13.6327 31.353 13.661 30.9963 13.712Z" fill="#0087B6"/>
<path d="M68.3637 13.712C67.5088 13.8196 66.7614 14.1649 66.2235 14.6971C65.7932 15.1331 65.6404 15.3992 65.0516 16.775L64.5703 17.896H66.1896C68.0523 17.896 68.358 17.8507 69.0601 17.5053C69.5696 17.2506 70.0112 16.8542 70.334 16.356C70.5038 16.1012 71.5795 13.7799 71.5795 13.678C71.5795 13.6327 68.7487 13.661 68.3637 13.712Z" fill="#0087B6"/>
<path d="M105.923 13.6893C104.689 13.8422 103.772 14.3574 103.2 15.218C103.047 15.4501 101.988 17.7714 101.988 17.879C101.988 17.8903 102.702 17.896 103.574 17.896C105.397 17.896 105.776 17.845 106.461 17.511C107.039 17.2279 107.599 16.6674 107.916 16.0559C108.199 15.5011 108.952 13.7969 108.952 13.712C108.952 13.6667 108.539 13.6497 107.525 13.6554C106.738 13.661 106.019 13.678 105.923 13.6893Z" fill="#0087B6"/>
<path d="M4.40496 19.8602C2.80269 20.081 1.42689 21.1964 0.58329 22.9571C0.0907197 23.9932 0.000132056 24.2593 0.000132056 24.7463C-0.00552967 25.3521 0.169984 25.6408 0.696525 25.8729C1.21174 26.0937 1.48917 26.1107 5.10135 26.0937L8.57199 26.0768L8.81545 25.5276L9.06456 24.9784L6.81685 24.9614C4.65974 24.9444 4.56349 24.9388 4.30871 24.8199C3.8954 24.6274 3.82746 24.3839 4.04261 23.8177L4.16717 23.5007H6.94707H9.72698L9.94213 23.0024C10.0554 22.7307 10.1516 22.4929 10.1516 22.4646C10.1516 22.4419 8.91736 22.4249 7.41134 22.4249H4.6654L4.75032 22.2098C4.94282 21.7512 5.32216 21.4228 5.95627 21.168C6.26201 21.0435 6.35259 21.0378 8.56067 21.0095L10.8423 20.9812L11.0915 20.415C11.2273 20.1036 11.3406 19.8432 11.3406 19.8375C11.3406 19.8092 4.59179 19.8375 4.40496 19.8602Z" fill="#CCD1D9"/>
<path d="M11.4108 21.7625C10.2898 24.282 10.3068 24.231 10.3068 24.7463C10.3011 25.3521 10.4766 25.6408 11.0032 25.8729C11.5184 26.0937 11.7958 26.1107 15.408 26.0937L18.8786 26.0768L19.1221 25.5276L19.3712 24.9784L17.1235 24.9614C14.9664 24.9444 14.8701 24.9388 14.6153 24.8199C14.2983 24.6783 14.2077 24.5254 14.2473 24.2141C14.2587 24.0838 14.6833 23.0647 15.1872 21.9267C15.6854 20.8 16.0987 19.8658 16.0987 19.8489C16.0987 19.8319 15.2381 19.8205 14.1851 19.8205H12.2714L11.4108 21.7625Z" fill="#CCD1D9"/>
<path d="M24.8817 19.8826C23.5681 20.1034 22.3226 21.0149 21.5073 22.3567C21.3997 22.5323 21.1676 23.0078 20.9807 23.4155L20.6523 24.1515V24.7233C20.6523 25.2669 20.658 25.3008 20.8165 25.5047C21.0147 25.7651 21.4167 25.9633 21.9262 26.0482C22.1697 26.0878 23.4379 26.1048 25.7422 26.0935L29.1846 26.0765L29.428 25.5273L29.6715 24.9781L27.4294 24.9611C25.3855 24.9441 25.1591 24.9328 24.9383 24.8366C24.5193 24.6554 24.4287 24.31 24.6722 23.7948L24.8081 23.5004H27.5766H30.3452L30.549 23.0248C30.6623 22.7587 30.7585 22.5153 30.7585 22.487C30.7585 22.4417 29.9093 22.4247 28.0409 22.4247C26.1952 22.4247 25.3233 22.4077 25.3233 22.3681C25.3233 22.1076 25.8102 21.5358 26.1952 21.3376C26.7783 21.0376 26.7387 21.0432 29.1676 21.0092L31.4606 20.9809L31.6984 20.4431C31.8343 20.1487 31.9418 19.8882 31.9418 19.8599C31.9475 19.8033 25.2497 19.8203 24.8817 19.8826Z" fill="#CCD1D9"/>
<path d="M35.1147 19.9052C33.7898 20.1713 32.6065 21.0489 31.8139 22.3567C31.7063 22.5323 31.4742 23.0078 31.2874 23.4155L30.959 24.1515V24.7233C30.959 25.2669 30.9646 25.3008 31.1232 25.5047C31.3213 25.7651 31.7233 25.9633 32.2329 26.0482C32.4763 26.0878 33.7446 26.1048 36.0489 26.0935L39.4912 26.0765L39.7347 25.5386L39.9781 25.0008L37.7304 24.9725C35.7092 24.9441 35.4657 24.9328 35.2449 24.8366C34.9845 24.7233 34.8373 24.5139 34.8373 24.2591C34.8373 24.1742 35.0581 23.6136 35.3242 23.0135C35.93 21.6547 36.0829 21.4792 36.9548 21.1338C37.1473 21.0545 37.5549 21.0376 39.4742 21.0092L41.7672 20.9809L42.005 20.4431C42.1409 20.1487 42.2485 19.8882 42.2485 19.8599C42.2541 19.8373 40.7311 19.8203 38.8741 19.8259C36.3206 19.8316 35.3978 19.8486 35.1147 19.9052Z" fill="#CCD1D9"/>
<path d="M43.19 19.866C43.1504 19.9339 42.7031 20.9531 42.7031 20.9814C42.7031 20.9983 43.3033 21.0097 44.0336 21.0097C44.764 21.0097 45.3641 21.0267 45.3641 21.0493C45.3641 21.0663 44.8659 22.1986 44.2601 23.5631C43.6543 24.9219 43.1561 26.0543 43.1561 26.0713C43.1561 26.0882 44.0166 26.1052 45.0697 26.1052H46.9777L48.1101 23.5574L49.2424 21.0097H50.6579H52.0733L52.2828 20.5114C52.4017 20.2397 52.5092 19.9736 52.5319 19.917C52.5659 19.8264 52.3224 19.8207 47.8949 19.8207C45.3245 19.8207 43.207 19.8434 43.19 19.866Z" fill="#CCD1D9"/>
<path d="M53.4103 20.0583C53.3537 20.1942 52.7366 21.5756 52.0459 23.1326C51.3551 24.6896 50.772 25.9974 50.7607 26.0371C50.738 26.088 51.14 26.105 52.6517 26.105H54.5767L55.1485 24.8141C55.6014 23.7894 55.743 23.5233 55.8336 23.5119C55.9015 23.5006 55.9525 23.5119 55.9525 23.5402C55.9525 23.5629 56.0147 24.1347 56.094 24.8028C56.1733 25.4709 56.2356 26.054 56.2356 26.088C56.2356 26.1446 56.6602 26.1616 58.1662 26.1616H60.0912L60.0572 25.8615C60.0176 25.4992 59.8591 23.6988 59.8591 23.5912C59.8591 23.5402 59.9666 23.5063 60.1874 23.4893C60.8216 23.427 61.3594 23.0307 61.7954 22.306C61.9935 21.9663 62.0275 21.8644 62.0501 21.4737C62.1011 20.7773 61.9086 20.3414 61.4443 20.1036C60.9801 19.8601 60.8895 19.8545 57.1244 19.8375L53.5179 19.8148L53.4103 20.0583ZM59.4344 21.151C59.559 21.2133 59.6949 21.3322 59.7402 21.4114C59.8138 21.5473 59.8138 21.5926 59.7232 21.8247C59.6666 21.9719 59.559 22.1644 59.491 22.2437L59.3608 22.3966L57.7982 22.4136C56.9376 22.4249 56.2356 22.4192 56.2356 22.4079C56.2356 22.3796 56.7338 21.2472 56.813 21.1057C56.864 21.0094 56.9546 21.0038 58.036 21.0208C59.0721 21.0378 59.2363 21.0491 59.4344 21.151Z" fill="#CCD1D9"/>
<path d="M66.1099 19.8998C65.5947 19.9961 65.3513 20.0754 64.9266 20.2905C64.1793 20.6585 63.4206 21.3379 62.9167 22.0853C62.6336 22.5042 62.0052 23.8517 61.9089 24.248C61.6881 25.1313 61.9825 25.7088 62.7865 25.9805C63.1998 26.1221 67.7915 26.1561 68.4992 26.0202C69.7051 25.7937 70.5204 25.2728 71.1489 24.3273C71.381 23.9763 71.9245 22.7647 72.0661 22.2834C72.1227 22.0966 72.168 21.7399 72.168 21.4908C72.1736 21.1058 72.151 20.9926 72.0151 20.7151C71.8339 20.3471 71.5339 20.0923 71.0979 19.9508C70.8601 19.8715 70.4864 19.8545 68.6634 19.8432C67.0554 19.8319 66.41 19.8432 66.1099 19.8998ZM69.6089 21.1398C69.8297 21.253 69.9939 21.5191 69.9939 21.7625C69.9939 21.989 69.0427 24.0725 68.8445 24.282C68.5048 24.6444 68.0123 24.8425 67.2423 24.9444C66.6704 25.018 65.9797 24.8029 65.8268 24.5085C65.7079 24.282 65.7419 24.1688 66.2685 22.9685C66.7554 21.8758 66.9196 21.638 67.3895 21.3606C67.967 21.0152 69.122 20.902 69.6089 21.1398Z" fill="#CCD1D9"/>
<path d="M72.8256 22.7761C72.1009 24.4067 71.4724 25.8221 71.4271 25.924L71.3535 26.1052L72.4689 26.0939L73.5842 26.0769L74.2806 24.5199C74.66 23.665 75.028 22.8384 75.0959 22.6855L75.2148 22.4081L76.0358 24.2538L76.8567 26.1052H78.793H80.7293L81.8447 23.5858C82.4618 22.1986 83.0903 20.7832 83.2431 20.4435L83.5206 19.8207H82.4052H81.2899L80.4689 21.6891C80.016 22.7138 79.6366 23.5574 79.6196 23.5574C79.6027 23.5574 79.229 22.7252 78.793 21.7004L77.9947 19.849L76.0697 19.832L74.1391 19.8207L72.8256 22.7761Z" fill="#CCD1D9"/>
<path d="M83.338 22.3232C82.7322 23.7047 82.1037 25.1201 81.9452 25.4711L81.6621 26.1052L83.5928 26.0939L85.5177 26.0769L86.8992 22.9686C87.6579 21.2588 88.2807 19.8547 88.2807 19.8434C88.2807 19.832 87.4201 19.8207 86.367 19.8207H84.4477L83.338 22.3232Z" fill="#CCD1D9"/>
<path d="M91.5123 19.9056C90.3007 20.1547 89.1627 20.9474 88.3984 22.0797C88.1266 22.4874 87.6114 23.5461 87.4359 24.0613C87.1868 24.8144 87.3396 25.4711 87.8379 25.7825C88.3361 26.0882 88.5512 26.1052 92.3899 26.1052H95.9002L96.1266 25.5843C96.2512 25.3013 96.3588 25.0465 96.3701 25.0238C96.3814 25.0012 95.3736 24.9729 94.1337 24.9616C91.7048 24.9446 91.6369 24.9332 91.3708 24.6332C91.1613 24.401 91.2236 24.1349 91.7331 22.9913C92.2427 21.8533 92.4182 21.6041 92.9221 21.3267C93.4543 21.038 93.7374 21.0097 96.0417 21.0097H98.1649L98.4083 20.4548C98.5385 20.1491 98.6461 19.883 98.6461 19.8603C98.6461 19.8377 97.1231 19.8207 95.2661 19.8264C92.69 19.832 91.7898 19.849 91.5123 19.9056Z" fill="#CCD1D9"/>
<path d="M101.695 19.9113C100.608 20.1038 99.7133 20.6757 98.9207 21.6721C98.4564 22.2496 98.2866 22.8951 98.5074 23.2121C98.7112 23.4952 98.7622 23.5009 101.893 23.5009C105.183 23.5009 105.064 23.4839 104.894 23.8859C104.843 23.9991 104.781 24.152 104.758 24.2199C104.73 24.2878 104.571 24.4351 104.407 24.5426C103.852 24.9106 103.778 24.9163 100.393 24.9163H97.358L97.1146 25.4428C96.9844 25.7259 96.8598 25.9977 96.8485 26.0373C96.8202 26.0996 97.5052 26.1053 100.517 26.0939C104.129 26.0713 104.231 26.0713 104.662 25.9467C105.471 25.7203 106.151 25.273 106.745 24.5596C107.164 24.0614 107.317 23.7387 107.351 23.2631C107.374 22.963 107.357 22.8498 107.283 22.7309C107.085 22.4365 106.977 22.4251 104.73 22.4251C102.754 22.4251 102.657 22.4195 102.55 22.3119C102.459 22.2213 102.448 22.176 102.499 22.0345C102.572 21.8307 102.963 21.457 103.28 21.2985C103.784 21.038 104.09 21.0097 106.349 21.0097H108.472L108.732 20.4152L108.999 19.8207L105.562 19.8264C102.901 19.8321 102.029 19.8491 101.695 19.9113Z" fill="#CCD1D9"/>
</svg>
