<svg width="127" height="40" viewBox="0 0 127 40" fill="none" xmlns="http://www.w3.org/2000/svg">
<path d="M40.3477 20.16C40.3477 30.7485 31.5584 39.303 20.7549 39.1834C15.2616 39.1236 9.8293 36.6709 6.47228 32.3637C3.42043 28.4155 2.74903 23.4502 3.96977 18.7243C4.0308 18.485 4.39702 18.5449 4.45806 18.7841C4.58013 27.5779 11.7825 34.5771 20.6939 34.6369C29.7884 34.7566 37.2349 27.5779 37.3569 18.6645C37.3569 18.6047 37.3569 18.5449 37.3569 18.485C37.3569 11.6654 33.0233 5.80282 26.9196 3.40995C26.6755 3.2903 26.4924 3.05102 26.4924 2.81173C26.4924 2.39298 26.9807 2.03404 27.4079 2.21351C34.9155 4.84567 40.3477 11.9046 40.3477 20.16Z" fill="#004987"/>
<path d="M1.46488 20.4584C1.46488 22.2531 1.77007 23.9281 2.25836 25.5433C2.3194 25.7826 2.62459 25.6629 2.62459 25.4835C2.25836 22.4326 2.74666 19.6808 3.35703 17.587C4.27258 14.237 5.92058 10.9468 8.17894 8.19498C9.88797 6.04139 11.8412 4.12709 13.9774 2.39226C14.5878 1.85387 15.2592 1.37529 15.9917 0.836895C16.1137 0.777073 16.2358 0.597608 16.1748 0.35832C16.1137 0.178855 15.9917 0.0592114 15.8085 -0.000610352C15.6865 -0.000610352 15.6254 -0.000610347 15.5034 0.0592115L0.244148 8.97266C0.122074 9.03248 0 9.21195 0 9.33159C0 9.57088 0.183111 9.75034 0.427258 9.75034L3.9674 9.45123C4.27258 9.45123 4.51673 9.75034 4.33362 10.0495C2.50251 13.1004 1.40385 16.6299 1.46488 20.4584Z" fill="#55565A"/>
<path d="M33.2602 19.4416C32.3447 20.0997 31.0629 20.6381 29.4759 21.0568C29.2318 21.1166 29.0487 21.3559 28.9876 21.5952C28.6825 23.2702 28.0721 25.0649 27.0955 26.9792C26.9734 27.2184 27.1565 27.4577 27.4007 27.3979C28.8045 27.0988 30.2694 26.6801 31.4291 25.9024C31.7343 25.7229 32.0395 25.4836 32.2226 25.1845C33.2602 23.6291 33.8096 21.655 33.9927 19.8604C33.9927 19.4416 33.5654 19.2023 33.2602 19.4416Z" fill="#004987"/>
<path d="M28.5042 13.5203C29.0535 15.2552 29.4197 17.3489 29.2366 19.8615C29.2366 20.1007 29.4197 20.2204 29.6028 20.1606C29.7859 20.1007 29.908 20.0409 30.0911 20.0409C31.3119 19.682 32.7157 19.1436 33.5702 18.1266C33.6923 18.007 33.7533 17.8275 33.8754 17.7079C33.9364 17.648 33.9364 17.5882 33.9364 17.4686C33.9975 17.3489 33.9364 17.2293 33.9364 17.1097C33.6923 15.2552 33.0819 13.4007 32.0443 11.8453C31.8001 11.4864 31.3119 11.4266 31.0067 11.7257C30.5794 12.2043 29.908 12.6828 28.7483 13.1016C28.5652 13.1614 28.4431 13.3409 28.5042 13.5203Z" fill="#004987"/>
<path d="M27.9533 12.0842C28.0143 12.2636 28.2584 12.3235 28.4416 12.2636C29.9064 11.7252 30.6999 11.0074 30.6999 10.4092C30.6999 10.1699 30.6389 9.93058 30.3947 9.6913C29.174 8.43504 27.6481 7.41807 26.0001 6.70021C25.817 6.64038 25.5118 6.64039 25.3897 6.81985C25.2676 6.93949 25.1456 6.99932 24.9625 7.05914C24.8404 7.11896 24.8404 7.29842 24.9014 7.35825C25.6949 8.19575 26.9767 9.81094 27.9533 12.0842Z" fill="#004987"/>
<path d="M17.3884 6.40085C17.9988 6.58032 19.1585 6.8196 20.8065 6.8196C20.8065 6.8196 20.8065 6.8196 20.8675 6.8196C20.8675 6.8196 20.8675 6.8196 20.9286 6.8196C22.5766 6.8196 23.7363 6.58032 24.3466 6.40085C24.4687 6.34103 24.4687 6.16156 24.3466 6.10174C23.248 5.80263 22.0883 5.62317 20.9286 5.62317C20.9286 5.62317 20.9286 5.62317 20.8675 5.62317C20.8065 5.62317 20.8675 5.62317 20.8065 5.62317C19.6468 5.62317 18.4871 5.80263 17.3884 6.10174C17.2664 6.16156 17.2664 6.34103 17.3884 6.40085Z" fill="#004987"/>
<path d="M14.3498 27.3979C14.5939 27.4577 14.7771 27.2184 14.655 26.9792C13.6784 25.0649 13.068 23.2702 12.7628 21.5952C12.7018 21.3559 12.5187 21.1166 12.2745 21.0568C10.6876 20.6381 9.40581 20.0997 8.49025 19.4416C8.18507 19.2023 7.75781 19.4416 7.75781 19.8604C7.94092 21.655 8.49026 23.689 9.52788 25.1845C9.71099 25.4836 10.0162 25.7229 10.3214 25.9024C11.5421 26.6801 12.9459 27.0988 14.3498 27.3979Z" fill="#004987"/>
<path d="M7.87549 17.6467C7.93653 17.8262 8.0586 17.9458 8.18067 18.0654C9.03519 19.0824 10.439 19.561 11.6598 19.9797C11.8429 20.0396 11.965 20.0994 12.1481 20.0994C12.3312 20.1592 12.5753 19.9797 12.5143 19.8003C12.2701 17.3476 12.6974 15.194 13.2467 13.4592C13.3078 13.2797 13.1857 13.1002 13.0026 12.9806C11.8429 12.5618 11.1715 12.0833 10.7442 11.6047C10.439 11.3056 9.95074 11.3056 9.7066 11.7243C8.73001 13.2797 8.0586 15.1342 7.81445 16.9886C7.81445 17.1083 7.81445 17.2279 7.81445 17.3476C7.81445 17.527 7.87549 17.5869 7.87549 17.6467Z" fill="#004987"/>
<path d="M13.3013 12.2636C13.4844 12.3235 13.6676 12.2636 13.7896 12.0842C14.7662 9.81094 16.048 8.19575 16.8415 7.35825C16.9025 7.2386 16.9025 7.11896 16.7804 7.05914C16.5973 6.99932 16.4752 6.87967 16.3532 6.81985C16.1701 6.64039 15.9259 6.64038 15.7428 6.70021C14.0948 7.41807 12.5689 8.43504 11.3482 9.6913C11.165 9.93058 11.043 10.1699 11.043 10.4092C11.043 11.0672 11.8975 11.7252 13.3013 12.2636Z" fill="#004987"/>
<path d="M19.7679 22.0748C17.6926 22.0149 15.7394 21.8355 14.0304 21.4765C13.7862 21.4167 13.6031 21.656 13.6642 21.8355C14.0914 23.6899 14.7628 25.4846 15.8615 27.3989C15.9836 27.6382 16.2277 27.7578 16.4719 27.8176C17.5705 27.9373 18.7302 28.0569 20.012 28.1168C20.2562 28.1168 20.5003 27.9373 20.5003 27.698V22.7926C20.4393 22.3739 20.1341 22.0748 19.7679 22.0748Z" fill="#004987"/>
<path d="M27.7097 21.4755C26.0006 21.8344 24.0474 22.0139 21.9722 22.0737C21.606 22.0737 21.3008 22.3728 21.3008 22.7317V27.6371C21.3008 27.8764 21.4839 28.1157 21.7891 28.0559C23.0708 27.9961 24.2306 27.9362 25.3292 27.7568C25.5734 27.6969 25.8175 27.5773 25.9396 27.338C26.9772 25.4835 27.7097 23.6291 28.1369 21.7746C28.1369 21.5951 27.9538 21.4157 27.7097 21.4755Z" fill="#004987"/>
<path d="M19.8925 14.2371C17.9393 14.1773 16.1082 13.938 14.5823 13.5192C14.3992 13.4594 14.1551 13.579 14.094 13.7585C13.4226 15.8523 13.1785 18.0059 13.4226 20.1594C13.4226 20.3389 13.5447 20.4586 13.7278 20.5184C15.5589 20.9371 17.6952 21.1764 19.9536 21.2362C20.2587 21.2362 20.4418 20.9969 20.4418 20.7577V14.8353C20.4418 14.5362 20.1977 14.2371 19.8925 14.2371Z" fill="#004987"/>
<path d="M27.7097 13.8184C27.6486 13.639 27.4045 13.5193 27.2214 13.5792C25.6344 13.9381 23.8033 14.1774 21.8501 14.2372C21.5449 14.2372 21.3008 14.4765 21.3008 14.8354V20.7578C21.3008 21.0569 21.5449 21.2364 21.7891 21.2364C24.0474 21.1765 26.1227 20.9372 28.0148 20.5185C28.1979 20.4587 28.32 20.339 28.32 20.1596C28.5642 18.006 28.3811 15.9122 27.7097 13.8184Z" fill="#004987"/>
<path d="M19.9542 7.65796C19.588 7.65796 19.1607 7.59814 18.7335 7.53831C18.2452 7.47849 17.6958 7.65796 17.3906 8.01689C16.6582 8.79457 15.4985 10.2901 14.644 12.2642C14.5829 12.4437 14.644 12.6232 14.8271 12.683C16.2309 13.0419 17.94 13.2812 19.9542 13.341C20.2594 13.341 20.5035 13.1017 20.5035 12.8625V8.13653C20.4425 7.89724 20.1983 7.65796 19.9542 7.65796Z" fill="#004987"/>
<path d="M27.0993 12.3244C26.1837 10.3503 25.0851 8.85476 24.3526 8.07708C23.9864 7.71815 23.4981 7.47886 23.0098 7.59851C22.5826 7.65833 22.1553 7.65833 21.7891 7.71815C21.4839 7.71815 21.3008 7.95744 21.3008 8.25655V12.9825C21.3008 13.2816 21.5449 13.461 21.8501 13.461C23.8033 13.4012 25.5734 13.1619 26.9772 12.803C27.0993 12.6834 27.2214 12.5039 27.0993 12.3244Z" fill="#004987"/>
<path d="M48.1592 8.91335C47.9761 8.91335 47.793 9.09282 47.793 9.27228V11.1866V14.7161V16.9893V20.5188V22.4331C47.793 22.6125 47.9761 22.792 48.1592 22.792H50.1124H59.1458C59.3289 22.792 59.512 22.6125 59.512 22.4331V20.8179C59.512 20.6384 59.3289 20.459 59.1458 20.459H50.4786C50.2955 20.459 50.1124 20.2795 50.1124 20.1V17.2884C50.1124 17.1089 50.2955 16.9295 50.4786 16.9295H59.1458C59.3289 16.9295 59.512 16.75 59.512 16.5705V14.9554C59.512 14.7759 59.3289 14.5964 59.1458 14.5964H50.4786C50.2955 14.5964 50.1124 14.417 50.1124 14.2375V11.4259C50.1124 11.2464 50.2955 11.0669 50.4786 11.0669H59.1458C59.3289 11.0669 59.512 10.8875 59.512 10.708V9.09282C59.512 8.91335 59.3289 8.73389 59.1458 8.73389H50.1124H48.1592V8.91335Z" fill="#55565A"/>
<path d="M62.6914 10.1099V22.4332C62.6914 22.6126 62.8745 22.7921 63.0576 22.7921H64.7056C64.8887 22.7921 65.0718 22.6126 65.0718 22.4332V13.759C65.0718 13.4599 65.4381 13.2804 65.6822 13.5197L70.6872 18.7242C70.8093 18.8439 71.0535 18.8439 71.1755 18.7242L76.1806 13.5197C76.4247 13.2804 76.7909 13.4599 76.7909 13.759V22.3733C76.7909 22.5528 76.974 22.7323 77.1571 22.7323H78.8051C78.9883 22.7323 79.1714 22.5528 79.1714 22.3733V10.1099C79.1714 9.0929 77.8896 8.55451 77.1571 9.33219L71.1755 15.434C71.0535 15.5537 70.8093 15.5537 70.6872 15.434L64.7667 9.27237C64.0342 8.55451 62.6914 9.03308 62.6914 10.1099Z" fill="#55565A"/>
<path d="M87.5353 8.91248H82.042C81.8589 8.91248 81.6758 9.09195 81.6758 9.27141V10.8866C81.6758 11.0661 81.8589 11.2455 82.042 11.2455H87.2301C87.4132 11.2455 87.5964 11.425 87.5964 11.6045V22.492C87.5964 22.6715 87.7795 22.851 87.9626 22.851H89.6106C89.7937 22.851 89.9768 22.6715 89.9768 22.492V11.5446C89.9768 11.3652 90.1599 11.1857 90.343 11.1857H95.5311C95.7143 11.1857 95.8974 11.0062 95.8974 10.8268V9.21159C95.8974 9.03213 95.7143 8.85266 95.5311 8.85266H90.0378H87.5353V8.91248Z" fill="#55565A"/>
<path d="M94.3721 22.1343L96.1421 23.0316C96.2032 23.0914 96.3253 23.0316 96.3253 22.9718L101.88 12.6824C101.941 12.5628 102.063 12.5628 102.124 12.6824L107.739 22.9718C107.8 23.0316 107.861 23.0914 107.922 23.0316L109.692 22.0744C109.753 22.0146 109.814 21.9548 109.753 21.895L102.978 9.45204C102.551 8.67435 101.391 8.67435 100.964 9.45204L94.25 21.895C94.25 22.0146 94.311 22.0744 94.3721 22.1343Z" fill="#55565A"/>
<path d="M123.971 9.27196V18.0658C123.971 18.3649 123.605 18.5443 123.361 18.305L113.961 9.21214C113.229 8.49428 112.008 9.03267 112.008 9.98982V22.3729C112.008 22.5524 112.191 22.7319 112.374 22.7319H114.022C114.205 22.7319 114.388 22.5524 114.388 22.3729V13.5791C114.388 13.28 114.754 13.1006 114.999 13.3398L124.398 22.4328C125.131 23.1506 126.351 22.6122 126.351 21.6551V9.27196C126.351 9.09249 126.168 8.91303 125.985 8.91303H124.337C124.154 8.91303 123.971 9.09249 123.971 9.27196Z" fill="#55565A"/>
<path d="M48.2774 31.5262H47.7891V26.8601H48.2774V31.5262Z" fill="#55565A"/>
<path d="M50.3452 31.1672C50.5894 31.1672 50.7115 31.1073 50.8946 30.9279C51.0166 30.7484 51.0777 30.5689 51.0777 30.3895C51.0777 30.1502 51.0166 29.9707 50.8946 29.8511C50.7725 29.7314 50.5894 29.552 50.4063 29.4323C50.0401 29.2529 49.7959 29.0734 49.6738 28.8341C49.4907 28.6546 49.4297 28.3555 49.4297 27.9966C49.4297 27.6377 49.5518 27.3386 49.7349 27.1591C49.979 26.9198 50.2232 26.8002 50.5894 26.8002C50.9556 26.8002 51.2608 26.86 51.5049 27.0395C51.4439 27.1591 51.3829 27.2787 51.3218 27.4582C51.0777 27.3386 50.8335 27.2787 50.6504 27.2787C50.4673 27.2787 50.2842 27.3386 50.1621 27.4582C50.0401 27.5779 49.979 27.7573 49.979 27.9966C49.979 28.2359 50.0401 28.4154 50.1011 28.535C50.2232 28.6546 50.4063 28.8341 50.7115 28.9538C51.0166 29.1332 51.2608 29.3127 51.3829 29.4922C51.5049 29.6716 51.566 29.9707 51.566 30.21C51.566 30.6288 51.4439 30.9279 51.2608 31.1672C51.0166 31.4064 50.7725 31.5261 50.3452 31.5261C49.979 31.5261 49.6738 31.4663 49.4297 31.3466V30.8082C49.5518 30.8681 49.7349 30.9279 49.8569 30.9877C50.0401 31.1672 50.1621 31.1672 50.3452 31.1672Z" fill="#55565A"/>
<path d="M52.6099 26.9189H53.4033C53.8916 26.9189 54.1968 27.0386 54.441 27.2181C54.6851 27.4573 54.7462 27.7565 54.7462 28.235C54.7462 28.5341 54.6851 28.8332 54.563 29.0127C54.441 29.1922 54.2579 29.3716 54.0137 29.4913L54.9293 31.585H54.3799L53.5254 29.6109H53.0371V31.585H52.5488V26.9189H52.6099ZM53.1592 27.3377V29.1324H53.5254C53.7696 29.1324 54.0137 29.0725 54.1358 28.8931C54.2579 28.7136 54.3189 28.5341 54.3189 28.1752C54.3189 27.8761 54.2579 27.6368 54.1358 27.5172C54.0137 27.3975 53.7696 27.3377 53.4644 27.3377H53.1592Z" fill="#55565A"/>
<path d="M56.6358 26.9189H57.2461C57.3682 27.4573 57.7955 29.0127 58.4058 31.585H57.9175L57.5513 30.0895H56.3916L56.0254 31.585H55.5371C56.0864 28.9529 56.5137 27.3975 56.6358 26.9189ZM57.1241 28.3547L57.002 27.8761C56.941 27.6966 56.941 27.5172 56.8799 27.3377C56.8189 27.577 56.8189 27.8163 56.7578 28.0556C56.6968 28.2948 56.6968 28.4145 56.6358 28.5341C56.6358 28.6538 56.5747 28.8332 56.5137 29.0725C56.4527 29.3118 56.3916 29.4913 56.3916 29.6109H57.3682L57.1241 28.3547Z" fill="#55565A"/>
<path d="M61.087 27.3387H59.7442V28.894H61.0259V29.3128H59.7442V31.0476H61.087V31.5262H59.2559V26.8601H61.087V27.3387Z" fill="#55565A"/>
<path d="M62.6841 31.1065H63.9659V31.585H62.1348V26.9189H62.6231V31.1065H62.6841Z" fill="#55565A"/>
<path d="M67.3799 31.1672C67.6241 31.1672 67.7461 31.1073 67.9292 30.9279C68.0513 30.7484 68.1123 30.5689 68.1123 30.3895C68.1123 30.1502 68.0513 29.9707 67.9292 29.8511C67.8072 29.7314 67.6241 29.552 67.4409 29.4323C67.0747 29.2529 66.8306 29.0734 66.7085 28.8341C66.5864 28.6546 66.5254 28.3555 66.5254 27.9966C66.5254 27.6377 66.6475 27.3386 66.8306 27.1591C67.0747 26.9198 67.3189 26.8002 67.6851 26.8002C68.0513 26.8002 68.3565 26.86 68.6006 27.0395C68.5396 27.1591 68.4786 27.2787 68.4175 27.4582C68.1734 27.3386 67.9292 27.2787 67.7461 27.2787C67.563 27.2787 67.3799 27.3386 67.2578 27.4582C67.1358 27.5779 67.0747 27.7573 67.0747 27.9966C67.0747 28.2359 67.1358 28.4154 67.1968 28.535C67.3189 28.6546 67.502 28.8341 67.8072 28.9538C68.1123 29.1332 68.3565 29.3127 68.4786 29.4922C68.6006 29.6716 68.6617 29.9707 68.6617 30.21C68.6617 30.6288 68.5396 30.9279 68.3565 31.1672C68.1123 31.4064 67.8682 31.5261 67.4409 31.5261C67.0137 31.5261 66.7695 31.4663 66.5254 31.3466V30.8082C66.6475 30.8681 66.8306 30.9279 66.9526 30.9877C67.0747 31.1672 67.1968 31.1672 67.3799 31.1672Z" fill="#55565A"/>
<path d="M73.4303 31.5262H72.942V28.236C72.942 28.0565 72.942 27.7574 73.003 27.3985L71.8433 31.5262H71.294L70.1343 27.3985C70.1343 27.7574 70.1953 28.0565 70.1953 28.236V31.5262H69.707V26.8601H70.4395L71.355 30.27C71.4161 30.5691 71.4771 30.8083 71.5381 30.9878C71.5381 30.8083 71.5992 30.5691 71.7212 30.27L72.6368 26.8601H73.4303V31.5262Z" fill="#55565A"/>
<path d="M75.4366 26.9189H76.0469C76.169 27.4573 76.5963 29.0127 77.2066 31.585H76.7183L76.3521 30.0895H75.1924L74.8262 31.585H74.3379C74.8872 28.9529 75.3145 27.3975 75.4366 26.9189ZM75.9248 28.3547L75.8028 27.8761C75.7417 27.6966 75.7417 27.5172 75.6807 27.3377C75.6197 27.577 75.6197 27.8163 75.5586 28.0556C75.4976 28.2948 75.4976 28.4145 75.4366 28.5341C75.4366 28.6538 75.3755 28.8332 75.3145 29.0725C75.2534 29.3118 75.1924 29.4913 75.1924 29.6109H76.169L75.9248 28.3547Z" fill="#55565A"/>
<path d="M78.5513 31.1065H79.8331V31.585H78.002V26.9189H78.4902V31.1065H78.5513Z" fill="#55565A"/>
<path d="M81.2993 31.1065H82.5811V31.585H80.75V26.9189H81.2383V31.1065H81.2993Z" fill="#55565A"/>
<path d="M85.9346 26.9189H86.545C86.667 27.4573 87.0943 29.0127 87.7047 31.585H87.2164L86.8502 30.0895H85.6904L85.3242 31.585H84.8359C85.3853 28.9529 85.8125 27.3975 85.9346 26.9189ZM86.4229 28.3547L86.3008 27.8761C86.2398 27.6966 86.2398 27.5172 86.1787 27.3377C86.1177 27.577 86.1177 27.8163 86.0567 28.0556C85.9956 28.2948 85.9956 28.4145 85.9346 28.5341C85.9346 28.6538 85.8736 28.8332 85.8125 29.0725C85.7515 29.3118 85.6904 29.4913 85.6904 29.6109H86.667L86.4229 28.3547Z" fill="#55565A"/>
<path d="M88.561 26.9189H89.3545C89.8428 26.9189 90.148 27.0386 90.3921 27.2181C90.6363 27.4573 90.6973 27.7565 90.6973 28.235C90.6973 28.5341 90.6363 28.8332 90.5142 29.0127C90.3921 29.1922 90.209 29.3716 89.9649 29.4913L90.8804 31.585H90.3311L89.4766 29.6109H88.9883V31.585H88.5V26.9189H88.561ZM89.0493 27.3377V29.1324H89.4156C89.6597 29.1324 89.9038 29.0725 90.0259 28.8931C90.148 28.7136 90.209 28.5341 90.209 28.1752C90.209 27.8761 90.148 27.6368 90.0259 27.5172C89.9038 27.3975 89.6597 27.3377 89.3545 27.3377H89.0493Z" fill="#55565A"/>
<path d="M95.6451 31.5262H95.1568V28.236C95.1568 28.0565 95.1568 27.7574 95.2179 27.3985L94.0582 31.5262H93.5088L92.3491 27.3985C92.3491 27.7574 92.4102 28.0565 92.4102 28.236V31.5262H91.9219V26.8601H92.6543L93.5699 30.27C93.6309 30.5691 93.6919 30.8083 93.753 30.9878C93.753 30.8083 93.814 30.5691 93.9361 30.27L94.8516 26.8601H95.6451V31.5262Z" fill="#55565A"/>
<path d="M97.6553 31.1672C97.8994 31.1672 98.0215 31.1073 98.2046 30.9279C98.3267 30.7484 98.3877 30.5689 98.3877 30.3895C98.3877 30.1502 98.3267 29.9707 98.2046 29.8511C98.0825 29.7314 97.8994 29.552 97.7163 29.4323C97.3501 29.2529 97.106 29.0734 96.9839 28.8341C96.8618 28.6546 96.8008 28.3555 96.8008 27.9966C96.8008 27.6377 96.9229 27.3386 97.106 27.1591C97.3501 26.9198 97.5943 26.8002 97.9605 26.8002C98.3267 26.8002 98.6319 26.86 98.876 27.0395C98.815 27.1591 98.754 27.2787 98.6929 27.4582C98.4488 27.3386 98.2046 27.2787 98.0215 27.2787C97.8384 27.2787 97.6553 27.3386 97.5332 27.4582C97.4111 27.5779 97.3501 27.7573 97.3501 27.9966C97.3501 28.2359 97.4111 28.4154 97.4722 28.535C97.5943 28.6546 97.7774 28.8341 98.0825 28.9538C98.3877 29.1332 98.6319 29.3127 98.754 29.4922C98.876 29.6716 98.9371 29.9707 98.9371 30.21C98.9371 30.6288 98.815 30.9279 98.6319 31.1672C98.3877 31.4064 98.1436 31.5261 97.7163 31.5261C97.2891 31.5261 97.0449 31.4663 96.8008 31.3466V30.8082C96.9229 30.8681 97.106 30.9279 97.228 30.9877C97.3501 31.1672 97.4722 31.1672 97.6553 31.1672Z" fill="#55565A"/>
<path d="M102.17 31.5262H101.682V26.8601H102.17V31.5262Z" fill="#55565A"/>
<path d="M106.325 31.5262H105.715L104.006 27.6378H103.945C104.006 27.9369 104.006 28.1762 104.006 28.4753V31.5262H103.518V26.8601H104.128L105.776 30.7485C105.776 30.4494 105.715 30.1503 105.715 29.911V26.9199H106.203V31.5262H106.325Z" fill="#55565A"/>
<path d="M107.6 26.9189H108.577C109.065 26.9189 109.492 27.0984 109.736 27.5172C109.981 27.9359 110.164 28.4743 110.164 29.252C110.164 30.0297 110.042 30.5681 109.736 30.9868C109.492 31.4056 109.065 31.585 108.516 31.585H107.539V26.9189H107.6ZM108.088 27.3377V31.1065H108.516C109.248 31.1065 109.614 30.4484 109.614 29.1922C109.614 28.594 109.553 28.1154 109.37 27.8163C109.187 27.5172 108.943 27.3377 108.577 27.3377H108.088Z" fill="#55565A"/>
<path d="M113.828 26.9189V30.0297C113.828 30.5681 113.706 30.9868 113.523 31.2261C113.34 31.5252 112.974 31.6449 112.607 31.6449C112.18 31.6449 111.875 31.5252 111.692 31.2261C111.448 30.927 111.387 30.5681 111.387 30.0297V26.9189H111.875V30.0297C111.875 30.3886 111.936 30.6877 112.058 30.8672C112.18 31.0466 112.363 31.1663 112.607 31.1663C112.852 31.1663 113.035 31.0466 113.157 30.8672C113.279 30.6877 113.34 30.3886 113.34 30.0297V26.9189H113.828Z" fill="#55565A"/>
<path d="M115.784 31.1672C116.028 31.1672 116.15 31.1073 116.334 30.9279C116.456 30.7484 116.517 30.5689 116.517 30.3895C116.517 30.1502 116.456 29.9707 116.334 29.8511C116.211 29.7314 116.028 29.552 115.845 29.4323C115.479 29.2529 115.235 29.0734 115.113 28.8341C114.991 28.6546 114.93 28.3555 114.93 27.9966C114.93 27.6377 115.052 27.3386 115.235 27.1591C115.479 26.9198 115.723 26.8002 116.089 26.8002C116.456 26.8002 116.761 26.86 117.005 27.0395C116.944 27.1591 116.883 27.2787 116.822 27.4582C116.578 27.3386 116.334 27.2787 116.15 27.2787C115.967 27.2787 115.784 27.3386 115.662 27.4582C115.54 27.5779 115.479 27.7573 115.479 27.9966C115.479 28.2359 115.54 28.4154 115.601 28.535C115.723 28.6546 115.906 28.8341 116.211 28.9538C116.517 29.1332 116.761 29.3127 116.883 29.4922C117.005 29.6716 117.066 29.9707 117.066 30.21C117.066 30.6288 116.944 30.9279 116.761 31.1672C116.517 31.4064 116.272 31.5261 115.845 31.5261C115.479 31.5261 115.174 31.4663 114.93 31.3466V30.8082C115.052 30.8681 115.235 30.9279 115.357 30.9877C115.479 31.1672 115.662 31.1672 115.784 31.1672Z" fill="#55565A"/>
<path d="M120.052 27.3387H119.136V31.5262H118.648V27.3387H117.732V26.8601H120.113V27.3387H120.052Z" fill="#55565A"/>
<path d="M120.913 26.9189H121.706C122.194 26.9189 122.5 27.0386 122.744 27.2181C122.988 27.4573 123.049 27.7565 123.049 28.235C123.049 28.5341 122.988 28.8332 122.866 29.0127C122.744 29.1922 122.561 29.3716 122.316 29.4913L123.232 31.585H122.683L121.828 29.6109H121.34V31.585H120.852V26.9189H120.913ZM121.401 27.3377V29.1324H121.767C122.011 29.1324 122.255 29.0725 122.377 28.8931C122.5 28.7136 122.561 28.5341 122.561 28.1752C122.561 27.8761 122.5 27.6368 122.377 27.5172C122.255 27.3975 122.011 27.3377 121.706 27.3377H121.401Z" fill="#55565A"/>
<path d="M125.24 31.5252H124.752V29.7306L123.775 26.9189H124.325L125.057 29.1324L125.79 26.9189H126.339L125.301 29.7306V31.5252H125.24Z" fill="#55565A"/>
</svg>
