<svg width="170" height="33" viewBox="0 0 170 33" fill="none" xmlns="http://www.w3.org/2000/svg">
<path fill-rule="evenodd" clip-rule="evenodd" d="M77.9757 23.8439H81.7656V4.77652L77.9757 8.23645V23.8439ZM69.5665 23.8439H73.3563V10.3503H69.5665V23.8439ZM69.5665 8.20044H73.3563V4.85085H69.5677V8.2016L69.5665 8.20044ZM61.0483 9.9426C60.0544 9.90218 59.068 10.1252 58.1949 10.5876C57.3218 11.0501 56.595 11.7345 56.0925 12.5675C55.8276 11.7533 55.286 11.0504 54.5561 10.5736C53.8261 10.0968 52.9511 9.87436 52.074 9.9426C51.0974 9.93794 50.1367 10.1822 49.2879 10.651C48.4392 11.1199 47.7323 11.7967 47.2379 12.6139H47.1828C47.1828 11.9321 47.1828 10.3085 47.1828 10.3085H43.8012V23.8508H47.4905V16.9891C47.4905 14.5001 48.9126 12.701 50.6196 12.701C52.1338 12.701 53.0328 13.9786 53.0328 15.6534V23.8508H56.5462V17.1203C56.5462 14.3956 57.8629 12.701 59.6202 12.701C61.1895 12.701 62.0897 13.9786 62.0897 16.3085V23.8497H65.8005V15.9414C65.8029 12.6139 64.5724 9.94492 61.0483 9.94492V9.9426ZM130.92 9.9426C126.371 9.9426 123.248 12.7161 123.248 17.0657C123.28 18.9891 124.088 20.8236 125.5 22.1743C126.912 23.5249 128.814 24.2837 130.796 24.2872C132.779 24.2907 134.684 23.5386 136.101 22.193C137.517 20.8474 138.333 19.0157 138.372 17.0924C138.413 16.1362 138.248 15.182 137.887 14.2913C137.526 13.4006 136.977 12.593 136.275 11.9202C135.574 11.2475 134.735 10.7246 133.813 10.385C132.89 10.0454 131.905 9.89672 130.92 9.94841V9.9426ZM130.782 21.6917C128.534 21.6824 127.191 19.7475 127.191 17.1017C127.191 14.219 128.613 12.456 130.816 12.456C133.046 12.456 134.496 14.1981 134.496 16.9763C134.496 19.7544 133.09 21.6917 130.782 21.6917ZM148.909 9.93912C147.989 9.8964 147.075 10.0988 146.265 10.5245C145.455 10.9501 144.781 11.5827 144.315 12.3538H144.26V10.2713L140.577 10.2527V23.8416H144.211V17.7428C144.153 16.6631 144.361 15.5855 144.816 14.5988C145.107 14.0649 145.536 13.6135 146.06 13.2887C146.585 12.964 147.188 12.7771 147.809 12.7463C150.232 12.7463 150.471 14.7556 150.471 17.3491V23.8474H154.104V15.9833C154.103 12.3677 152.681 9.93912 148.909 9.93912ZM120.223 21.2678C118.434 21.2678 117.92 20.255 117.92 18.2109V13.0402H121.511V10.3015H117.92V4.84272L114.449 8.039V10.3015H111.674V13.0402H114.4V18.9182C114.4 22.4815 115.878 24.0971 119.125 24.0971C120.016 24.1164 120.905 24.0016 121.759 23.7568L121.676 21.0576C121.205 21.1938 120.715 21.2646 120.223 21.2678ZM170 17.2411C170 12.363 167.779 9.93912 163.677 9.93912C162.714 9.91015 161.755 10.0746 160.861 10.4221C159.966 10.7696 159.155 11.2926 158.479 11.9585C157.803 12.6243 157.275 13.4186 156.93 14.2914C156.585 15.1643 156.43 16.0969 156.473 17.0309C156.473 21.5605 159.631 24.2539 164.283 24.2539C165.905 24.2794 167.515 23.976 169.009 23.363L168.954 20.4803C167.675 21.2176 166.211 21.5985 164.723 21.5814C162.163 21.5814 160.3 20.0518 160.245 17.9809H169.941C169.975 17.7356 169.995 17.4886 170 17.2411ZM160.19 15.7684C160.403 13.3805 161.915 12.4316 163.542 12.4316C165.359 12.4316 166.616 13.327 166.616 15.7684H160.19ZM98.0347 17.2434C98.0347 12.3654 95.8141 9.94144 91.7118 9.94144C90.7488 9.91247 89.7899 10.0769 88.8954 10.4244C88.0008 10.7719 87.19 11.2949 86.5136 11.9608C85.8372 12.6266 85.3099 13.4209 84.9648 14.2938C84.6197 15.1666 84.4642 16.0993 84.508 17.0332C84.508 21.5628 87.6658 24.2562 92.3176 24.2562C93.9396 24.2817 95.5493 23.9783 97.0435 23.3654L96.9884 20.4827C95.7094 21.2199 94.2457 21.6008 92.7581 21.5837C90.1976 21.5837 88.329 20.0541 88.2799 17.9833H97.976C98.0103 17.7372 98.0299 17.4894 98.0347 17.2411V17.2434ZM88.2189 15.7684C88.4319 13.3805 89.945 12.4316 91.5706 12.4316C93.3877 12.4316 94.6446 13.327 94.6446 15.7684H88.2248H88.2189ZM106.421 15.8508C104.411 15.2213 103.731 14.8056 103.731 13.8938C103.731 12.9821 104.742 12.3839 105.981 12.3839C107.121 12.3915 108.246 12.6367 109.28 13.1029V10.3898C108.164 10.0424 106.998 9.87406 105.826 9.8915C102.44 9.8915 100.109 11.5605 100.109 14.1284C100.109 16.1191 101.385 17.0448 104.083 17.9356C106.341 18.6952 106.864 19.1586 106.864 20.1029C106.864 21.0715 105.69 21.6406 104.451 21.6406C103.093 21.623 101.755 21.3273 100.523 20.773V23.5942C101.854 24.0136 103.245 24.221 104.644 24.2086C108.085 24.2086 110.553 22.593 110.553 19.8148C110.547 17.5105 108.931 16.6348 106.427 15.8485L106.421 15.8508ZM17.3368 32.9995L0 16.5001L17.3368 -0.000488281L34.6725 16.5001L17.3368 32.9995Z" fill="#0099DA"/>
</svg>
