<svg width="121" height="43" viewBox="0 0 121 43" fill="none" xmlns="http://www.w3.org/2000/svg">
<path d="M90.2038 16.5901C89.1006 16.7631 88.3493 17.2699 87.9616 18.1048C87.6695 18.7369 87.5144 19.5061 87.6873 19.518C87.7231 19.518 88.3015 19.5657 88.9635 19.6194L90.168 19.7208L90.2336 19.4345C90.3529 18.88 90.5675 18.5758 90.9671 18.4089C91.5395 18.1704 92.2193 18.4983 92.3803 19.0887C92.5413 19.685 92.1179 20.2574 90.7047 21.3308C88.4029 23.0959 87.747 23.9605 87.4011 25.6958L87.3594 25.8926H91.2115H95.0637V24.8192V23.7459H93.1197H91.1698L91.4322 23.5073C91.5753 23.3821 92.0046 23.0541 92.3803 22.7858C94.3839 21.3547 95.0041 20.5079 95.0041 19.2079C95.0041 17.9736 94.1871 16.9897 92.9051 16.6736C92.4519 16.5663 90.7226 16.5126 90.2038 16.5901Z" fill="#BBBF1D"/>
<path d="M98.8272 16.6137C97.5571 16.888 96.7997 17.5439 96.5672 18.5577C96.3823 19.3627 96.6745 20.281 97.2589 20.7402C97.8194 21.1814 98.1772 21.3186 99.8469 21.7479C101.236 22.1057 101.648 22.2727 101.952 22.6126C102.453 23.1671 102.328 23.99 101.678 24.4671C100.956 24.9859 99.4295 25.0396 98.5231 24.5744C97.9506 24.2822 97.5094 23.6979 97.4199 23.1015C97.3961 22.9584 97.3483 22.8272 97.3126 22.8153C97.241 22.7855 96.2094 22.8809 96.1736 22.9226C96.0961 22.9942 96.2929 23.829 96.4718 24.2107C96.8892 25.0992 97.7181 25.7074 98.7974 25.9281C99.4295 26.0533 100.7 26.0533 101.183 25.9281C102.149 25.6716 102.876 25.123 103.246 24.3717C103.437 23.9722 103.449 23.9245 103.449 23.2983C103.449 22.702 103.431 22.6066 103.276 22.2667C103.061 21.8016 102.584 21.3484 102.023 21.0741C101.785 20.9548 101.075 20.7342 100.27 20.5255C98.3323 20.0246 98.1176 19.9351 97.885 19.5237C97.6465 19.0943 97.7479 18.498 98.1236 18.1641C98.5052 17.8123 99.2506 17.6214 100.044 17.6811C101.123 17.7586 101.743 18.2178 101.934 19.0824L102.011 19.4104L102.608 19.3686C102.936 19.3448 103.216 19.315 103.228 19.303C103.288 19.2434 103.103 18.498 102.948 18.1641C102.614 17.4485 101.94 16.9178 101.063 16.6793C100.568 16.5481 99.3221 16.5123 98.8272 16.6137Z" fill="#363B61"/>
<path d="M55.1758 16.781C55.1758 16.8227 55.623 18.8919 56.1716 21.3725L57.1734 25.8926H58.5867H59.9999L60.0536 25.6958C60.0834 25.5944 60.4233 24.366 60.8109 22.9707C61.1985 21.5753 61.5265 20.4065 61.5503 20.3648C61.5682 20.323 61.9379 21.5514 62.3613 23.0899L63.1365 25.8926H64.5498C65.8438 25.8926 65.963 25.8866 65.9929 25.7852C66.0107 25.7316 66.452 23.7339 66.9768 21.3547C67.5015 18.9694 67.9488 16.9479 67.9726 16.8644L68.0084 16.7094H66.6369H65.2654L65.2057 16.9897C65.1699 17.1507 64.9612 18.2479 64.7406 19.4345C64.514 20.6212 64.3232 21.5813 64.3053 21.5693C64.2934 21.5514 63.9773 20.4602 63.6136 19.1423L62.9397 16.7392L61.5742 16.7213L60.2027 16.7094L60.0119 17.3773C59.9105 17.747 59.6064 18.8501 59.338 19.8281C59.0458 20.8836 58.8312 21.5574 58.8073 21.4978C58.7894 21.4381 58.5748 20.335 58.3362 19.0469L57.895 16.7094H56.5354C55.4859 16.7094 55.1758 16.7273 55.1758 16.781Z" fill="#363B61"/>
<path d="M68.8281 21.301V25.8926H72.734H76.6398V24.8192V23.7459H74.1949H71.75V22.8812V22.0166H73.9266H76.1031V21.0625V20.1084H73.9266H71.75V19.3928V18.6772H74.1055H76.4609V17.6933V16.7094H72.6445H68.8281V21.301Z" fill="#363B61"/>
<path d="M78.0723 21.301V25.8926H80.6543C84.0831 25.8926 84.8702 25.8031 85.5679 25.3201C86.1642 24.9087 86.522 24.2468 86.5816 23.4656C86.6711 22.3386 86.1463 21.4799 85.1564 21.1161L84.8165 20.9909L85.1087 20.8418C85.4725 20.6629 85.7885 20.3111 85.9972 19.8758C86.1284 19.5896 86.1523 19.4643 86.1523 18.9754C86.1523 18.4864 86.1284 18.3612 85.9913 18.069C85.6931 17.425 85.1564 16.9897 84.423 16.7988C84.1308 16.7273 83.5702 16.7094 81.0717 16.7094H78.0723V21.301ZM82.9262 18.6414C83.2482 18.7786 83.3794 18.9933 83.3794 19.4047C83.3794 20.1561 83.1349 20.3051 81.8469 20.335L80.9346 20.3588V19.4584V18.558H81.829C82.4551 18.558 82.7891 18.5818 82.9262 18.6414ZM83.3079 22.1537C83.5941 22.3088 83.7372 22.5831 83.7372 22.9587C83.7372 23.3583 83.606 23.5968 83.29 23.7637C83.0753 23.877 82.9322 23.8949 81.996 23.9128L80.9346 23.9367V22.9707V22.0046L82.0258 22.0285C82.9262 22.0464 83.1469 22.0643 83.3079 22.1537Z" fill="#363B61"/>
<path d="M105.084 21.301V25.8926H108.513H111.942V25.3261V24.7596H109.139H106.336V23.239V21.7184H108.871H111.405V21.1519V20.5854H108.871H106.336V19.2139V17.8424H109.049H111.763V17.2759V16.7094H108.423H105.084V21.301Z" fill="#363B61"/>
<path d="M113.609 21.301V25.8926H117.038H120.467V25.3261V24.7596H117.664H114.862V23.239V21.7184H117.396H119.93V21.1519V20.5854H117.396H114.862V19.2139V17.8424H117.545H120.228V17.2759V16.7094H116.919H113.609V21.301Z" fill="#363B61"/>
<path d="M25.6578 0.0148602C21.5562 0.236406 17.9516 0.996849 14.4248 2.38002C13.2333 2.84706 11.3232 3.77516 10.2993 4.37992C6.21564 6.79298 3.07208 10.0204 1.23983 13.6669C0.982356 14.1759 0.44346 15.4512 0.38957 15.6788L0.347656 15.8464H8.11974H15.8978L16.3409 15.2357C18.5983 12.158 22.6939 9.86469 27.3344 9.08628C28.6996 8.85875 29.3343 8.81085 31.0767 8.81085C33.2622 8.81683 34.4957 8.96054 36.4357 9.44555C40.4835 10.4635 44.0342 12.7388 45.9263 15.5351L46.1359 15.8404L50.1656 15.8464C53.4349 15.8464 54.1894 15.8345 54.1894 15.7686C54.1894 15.6309 53.7762 14.6429 53.3511 13.7807C52.3512 11.7209 51.0039 9.90061 49.1836 8.12226C44.5851 3.64343 37.9147 0.787278 30.4779 0.128628C29.466 0.0388117 26.5141 -0.033041 25.6578 0.0148602Z" fill="#BBBF1D"/>
<path d="M31.649 14.2356C30.7449 14.3314 29.727 14.7026 28.9306 15.2296C28.0444 15.8164 27.1043 16.942 26.7032 17.9061C26.3678 18.7084 26.2661 19.2054 26.2361 20.1575C26.2122 20.87 26.2301 21.1275 26.3259 21.5945C26.799 23.8818 28.4815 25.6782 30.7269 26.3009C31.4754 26.5104 32.655 26.5584 33.4513 26.4206C35.8584 26.0015 37.8403 24.1094 38.3733 21.7322C38.5709 20.858 38.5469 19.6545 38.3134 18.7503C38.1697 18.1755 37.7445 17.2774 37.3853 16.7684C36.3674 15.3433 34.7567 14.4152 32.9783 14.2296C32.3137 14.1637 32.3256 14.1637 31.649 14.2356Z" fill="#363B61"/>
<path d="M0 25.5642C0 25.6061 0.119755 25.9894 0.26346 26.4145C1.28138 29.4443 2.85615 31.8933 5.36501 34.3482C11.5563 40.3959 21.4121 43.3837 31.4356 42.2521C37.5192 41.5635 43.1716 39.33 47.4229 35.929C48.3929 35.1506 49.9198 33.6716 50.6862 32.7615C51.9975 31.2107 53.0933 29.4323 53.8058 27.7198C54.0513 27.139 54.5483 25.684 54.5483 25.5642C54.5483 25.4984 53.7759 25.4864 50.5485 25.4864H46.5487L46.3151 25.8876C45.7224 26.8995 44.6266 28.1629 43.5907 29.0311C39.3155 32.5998 32.8068 34.0429 26.5856 32.7914C24.7892 32.4322 23.2683 31.9052 21.6457 31.0909C19.023 29.7676 17.0411 28.0312 15.7777 25.9474L15.5023 25.4864H7.74813C1.45502 25.4864 0 25.4984 0 25.5642Z" fill="#BBBF1D"/>
</svg>
