<svg width="174" height="25" viewBox="0 0 174 25" fill="none" xmlns="http://www.w3.org/2000/svg">
<path d="M127.289 5.67246H143.728C145.555 8.29323 147.842 10.2942 150.724 11.5797H130.125L127.289 5.67246ZM149.721 -0.000610352C151.508 3.68052 154.045 5.67246 159.421 5.67246H167.28L170.117 11.5797H159.421C150.465 11.5797 145.549 7.28717 142.578 -0.000610352H149.721ZM173.996 19.3265H157.557C155.731 16.7057 153.444 14.7051 150.562 13.4203H171.161L173.996 19.3265ZM151.564 24.9996C149.777 21.3188 147.241 19.3265 141.864 19.3265H134.006L131.17 13.4203H141.864C150.82 13.4203 155.737 17.7125 158.707 24.9996H151.564Z" fill="#1E1F56"/>
<path d="M14.4085 11.0916L13.0297 7.72406C12.5349 6.5614 11.3597 5.66078 10.2879 5.66078H4.35067L3.63832 3.91174H0L1.7654 8.2217C1.89659 8.53037 2.2519 8.83905 2.54178 8.83905H10.0533L10.899 10.8797L9.10537 14.4575C8.99575 14.6708 8.86526 15.4207 8.9968 15.7287L10.1066 18.4441C10.3585 19.0364 10.8951 19.3688 11.5205 19.3688H15.5176L14.1896 16.2142H12.9741C12.5941 16.2142 12.5015 15.7872 12.5015 15.7872L14.2029 12.4123C14.3264 12.1753 14.6305 11.614 14.4085 11.0916ZM124.566 19.3302L120.274 8.8387C119.179 6.18174 117.513 5.66044 116.42 5.66044H109.544L110.867 8.8387H116.725L121.018 19.3302H124.566ZM112.697 15.2655L110.166 9.2229C109.36 7.25462 107.262 5.66078 105.096 5.66078H98.9244L100.227 8.83905H105.152C106.024 8.83905 106.853 9.71601 107.115 10.3563L108.953 14.8389C109.263 15.5975 108.691 16.2142 107.932 16.2142H103.251L104.545 19.3691H110.048C112.08 19.3691 113.582 17.4235 112.697 15.2655ZM101.67 16.2142H100.47L97.7015 9.45988C96.6408 6.87495 94.3486 5.66078 91.938 5.66078H85.6939L86.9971 8.83905H92.4621C93.2218 8.83905 94.1415 9.50268 94.4829 10.3323L96.8942 16.2142H90.0216L91.3147 19.3691H102.96L101.67 16.2142ZM89.2368 19.3848L84.9119 8.8387C83.8216 6.18174 82.1794 5.66044 81.0857 5.66044L71.0832 5.65278L75.2522 15.8115C75.3402 16.0252 75.2835 16.2142 75.082 16.2142H73.3907L74.6835 19.3688H77.7626C78.8568 19.3688 80.0932 18.8475 79.0144 16.2142L75.9795 8.8387H81.4267L85.7325 19.3848H89.2368ZM65.2685 12.081L63.8017 8.53142C62.7653 6.00322 61.5264 5.66044 60.0074 5.66044H56.6534L57.956 8.8387H60.148C60.3265 8.8387 60.4654 8.95668 60.5768 9.21837L61.7763 12.081H65.2685ZM59.3956 15.0995L56.8281 8.8387C56.3816 7.77105 55.86 7.05939 55.2945 6.5614C54.4833 5.85044 53.5997 5.66078 52.9758 5.66078H50.1789L51.4825 8.83905L53.3137 8.84775L55.6741 14.6252C55.6741 14.6252 56.4578 16.2142 55.1222 16.2142H53.4515L49.1293 5.66252H45.6062L49.9287 16.2142H48.3502C46.9446 16.2142 46.4063 14.6252 46.4063 14.6252L44.0166 8.84775L45.8216 8.83905L44.5194 5.66078H41.6846C41.0147 5.66078 40.3358 5.85044 40.1071 6.58541C39.9805 7.08375 40.056 7.79505 40.4938 8.83905L43.0599 15.0999C43.5871 16.3569 44.1206 17.5244 44.953 18.2733C45.5571 18.8182 46.2166 19.3691 48.7688 19.3691H57.3988C58.1575 19.3691 59.2067 18.9421 59.6476 17.9695C59.9396 17.2815 59.9121 16.3332 59.3956 15.0995ZM43.0004 19.3302L38.681 8.8387C37.5873 6.18174 35.9211 5.66044 34.8273 5.66044H27.9126L29.219 8.8387L35.1468 8.84775L39.4348 19.3302H43.0004ZM32.9631 19.367L27.8145 14.6482C27.8145 14.6482 29.7156 13.5819 28.6664 11.1157L27.1466 7.41504C26.9737 7.01171 26.7151 6.53808 26.2958 6.18173C25.897 5.87376 25.3492 5.66044 24.9706 5.66044H21.5341L22.8377 8.8387H24.1754L25.059 10.9726C25.4324 11.8503 24.2555 11.9686 24.2555 11.9686L17.3811 5.66252L12.6369 5.66566L17.2207 9.88165C17.2207 9.88165 15.6735 11.2576 16.6726 13.6056L18.2341 17.4005C18.8396 18.8231 20.2326 19.3691 21.081 19.3691H24.3658L23.0664 16.2142H22.2134C21.8846 16.2378 21.2923 16.2142 20.9902 15.5029L20.2156 13.5819C19.9438 12.9416 20.6634 12.4669 20.6634 12.4669L28.1979 19.367H32.9631Z" fill="#1E1F56"/>
</svg>
