<svg width="112" height="32" viewBox="0 0 112 32" fill="none" xmlns="http://www.w3.org/2000/svg">
<path d="M3.21092 10.7741L9.50817 10.8717L10.0501 9.46793C12.9603 1.95114 18.1557 -0.000610352 22.4138 -0.000610352C26.5241 -0.000610352 29.2863 1.45069 29.2863 3.53131C29.2863 5.62819 26.9678 6.74169 25.8494 6.74169C24.0079 6.74169 25.1429 2.22514 22.1014 2.22514C19.9806 2.22514 18.0563 4.41836 16.3474 8.75849L15.4764 10.968L21.1488 11.0481C24.3051 11.0968 25.3738 12.1453 25.2424 13.9519C26.459 12.1615 28.1691 10.9192 30.0922 10.9192C31.6379 10.9192 32.7563 11.6611 32.7563 12.9673C32.7563 14.5637 30.8166 16.4191 29.6 16.4191C28.4331 16.4191 28.6461 14.7902 27.5608 14.7902C26.7217 14.7902 26.13 15.5158 25.6046 16.8708L24.0258 20.9832C23.0885 23.4355 19.9985 24.4839 18.4529 24.4839C17.0552 24.4839 17.2694 23.5643 17.5321 22.8862L20.7381 14.4824C21.0506 13.6591 20.7547 13.1274 19.8174 13.16L14.5557 13.3213L8.85016 27.8382C7.5685 31.0798 4.1814 31.9994 2.80028 31.9994C1.63341 31.9994 1.6653 31.0798 1.92927 30.403L8.48925 13.499L0.662933 13.7254C-0.948999 13.7743 0.563468 10.7266 3.21092 10.7741ZM42.4559 10.8717C46.0726 10.8717 47.9141 12.4681 47.9141 14.4361C47.9141 18.2746 42.373 19.2905 37.9007 19.1141V19.308C37.9172 20.7118 38.8546 21.55 40.4984 21.55C42.4878 21.55 43.6394 20.4528 44.263 20.4528C44.9861 20.4528 45.1837 21.5662 44.9045 21.9203C44.1482 22.8724 41.5008 24.2912 38.3113 24.2912C34.4307 24.2912 32.3099 22.3395 32.3099 19.3555C32.3112 14.6613 36.8486 10.8717 42.4559 10.8717ZM42.6026 14.0495C42.6026 13.469 42.2404 13.0174 41.6652 13.0174C40.186 13.0174 38.8546 15.0342 38.2463 17.066C41.5837 16.8721 42.6192 15.1293 42.6026 14.0495ZM58.699 10.8717C62.3157 10.8717 64.1572 12.4681 64.1572 14.4361C64.1572 18.2746 58.6161 19.2905 54.1451 19.1141V19.308C54.1616 20.7118 55.0989 21.55 56.7428 21.55C58.7321 21.55 59.8824 20.4528 60.5074 20.4528C61.2304 20.4528 61.4281 21.5662 61.1488 21.9203C60.3926 22.8724 57.7451 24.2912 54.5556 24.2912C50.675 24.2912 48.5542 22.3395 48.5542 19.3555C48.5542 14.6613 53.093 10.8717 58.699 10.8717ZM58.8469 14.0495C58.8469 13.469 58.4847 13.0174 57.9097 13.0174C56.4303 13.0174 55.0976 15.0342 54.4894 17.066C57.828 16.8721 58.8635 15.1293 58.8469 14.0495ZM63.7133 21.5325C63.6802 21.1296 64.2885 20.3551 64.8317 20.3551C65.4567 20.3551 66.7549 22.3558 68.8272 22.3558C69.8959 22.3558 70.471 21.7915 70.471 20.9682C70.471 18.9201 66.1465 19.0815 66.1465 15.452C66.1465 12.7584 68.859 10.8717 72.7065 10.8717C75.1563 10.8717 78.0167 11.581 78.0167 13.2263C78.0167 14.2422 76.9978 15.3882 76.1102 15.3882C74.9268 15.3882 74.1871 12.6132 72.6249 12.6132C71.935 12.6132 71.4899 13.0161 71.4899 13.6779C71.4899 16.1777 75.8143 16.2427 75.8143 19.7747C75.8143 22.6135 72.8225 24.2912 69.6 24.2912C66.1797 24.2912 63.7963 22.646 63.7133 21.5325ZM82.3743 8.72594C83.2951 6.3551 82.8181 5.59691 83.1968 4.51595C83.6572 3.16097 87.4879 1.20922 89.1484 1.20922C90.4317 1.20922 90.6614 1.87107 90.2004 3.06464L86.6821 12.2742C87.9488 11.4509 89.4932 10.9355 90.9564 10.9355C93.5214 10.9355 95.3626 12.3392 95.4124 14.8553C95.5119 20.2426 90.8255 24.2912 84.0194 24.2912C80.8962 24.2912 76.9825 22.6948 77.9032 20.3064L82.3743 8.72594ZM84.9389 21.7589C87.7009 21.7589 89.921 17.6302 89.8713 15.0166C89.8547 13.9356 89.3632 13.3876 88.5067 13.3876C87.8327 13.3876 86.5508 13.9206 85.8111 14.8715L83.2963 21.1459C83.4264 21.4687 84.1495 21.7589 84.9389 21.7589ZM106.542 10.8717C110.159 10.8717 112 12.4681 112 14.4361C112 18.2746 106.459 19.2905 101.988 19.1141V19.308C102.005 20.7118 102.941 21.55 104.585 21.55C106.575 21.55 107.727 20.4528 108.35 20.4528C109.074 20.4528 109.271 21.5662 108.992 21.9203C108.235 22.8724 105.588 24.2912 102.398 24.2912C98.5178 24.2912 96.3972 22.3395 96.3972 19.3555C96.398 14.6613 100.936 10.8717 106.542 10.8717ZM106.691 14.0495C106.691 13.469 106.329 13.0174 105.753 13.0174C104.275 13.0174 102.941 15.0342 102.334 17.066C105.671 16.8721 106.707 15.1293 106.691 14.0495Z" fill="#00D5D1"/>
</svg>
