<svg width="136" height="26" viewBox="0 0 136 26" fill="none" xmlns="http://www.w3.org/2000/svg">
<path d="M83.087 4.89133V21.8698H87.8722V4.89133H83.087ZM45.4375 4.86255V21.8554H50.2658V8.66111L54.0308 8.6755C55.2666 8.6755 56.1288 8.97766 56.718 9.61076C57.4796 10.4165 57.7814 11.7259 57.7814 14.1V21.8554H62.466V12.4741C62.466 5.76903 58.1981 4.86255 54.0308 4.86255H45.4375ZM90.8037 4.89133V21.8698H98.5636C102.702 21.8698 104.053 21.1791 105.504 19.6395C106.539 18.5604 107.2 16.1719 107.2 13.5676C107.2 11.1791 106.64 9.0496 105.648 7.72586C103.895 5.35176 101.337 4.89133 97.5145 4.89133H90.8037ZM95.5458 8.57478H97.6008C100.59 8.57478 102.515 9.91291 102.515 13.3949C102.515 16.877 100.59 18.2295 97.6008 18.2295H95.5458V8.57478ZM76.1894 4.89133L72.1945 18.3446L68.3721 4.89133H63.1989L68.6595 21.8698H75.5571L81.0752 4.89133H76.1894ZM109.442 21.8698H114.227V4.89133H109.442V21.8698ZM122.863 4.89133L116.181 21.8554H120.895L121.958 18.8482H129.862L130.867 21.841H135.998L129.258 4.89133H122.863ZM125.967 7.98485L128.87 15.9273H122.978L125.967 7.98485Z" fill="#363B61"/>
<path d="M14.5569 7.71175V5.38081C14.7868 5.36642 15.0167 5.35204 15.2466 5.35204C21.6269 5.1506 25.8086 10.8484 25.8086 10.8484C25.8086 10.8484 21.2964 17.1218 16.4537 17.1218C15.807 17.1218 15.1748 17.0211 14.5712 16.8197V9.74053C17.0572 10.0427 17.5602 11.1362 19.0403 13.6254L22.3598 10.8341C22.3598 10.8341 19.9313 7.6542 15.8502 7.6542C15.4191 7.63981 14.988 7.66858 14.5569 7.71175ZM14.5569 -0.000488281V3.48153L15.2466 3.43836C24.1129 3.13621 29.9041 10.7189 29.9041 10.7189C29.9041 10.7189 23.2651 18.8053 16.3531 18.8053C15.7496 18.8053 15.1604 18.7477 14.5712 18.647V20.8053C15.0598 20.8628 15.5628 20.906 16.0513 20.906C22.4891 20.906 27.145 17.611 31.6572 13.7261C32.4045 14.3305 35.4653 15.7837 36.0976 16.4168C31.8153 20.0139 21.8281 22.906 16.1663 22.906C15.6202 22.906 15.1029 22.8772 14.5856 22.8197V25.8557H39.0434V-0.000488281H14.5569ZM14.5569 16.8197V18.6614C8.60766 17.5967 6.9551 11.3952 6.9551 11.3952C6.9551 11.3952 9.81474 8.22974 14.5569 7.71175V9.72614H14.5425C12.0565 9.42398 10.1021 11.7549 10.1021 11.7549C10.1021 11.7549 11.2086 15.683 14.5569 16.8197ZM3.99487 11.1362C3.99487 11.1362 7.51553 5.92758 14.5712 5.38081V3.48153C6.75392 4.11462 0 10.7333 0 10.7333C0 10.7333 3.82243 21.8125 14.5569 22.8197V20.8053C6.68207 19.8269 3.99487 11.1362 3.99487 11.1362Z" fill="#76B900"/>
</svg>
