<svg width="100" height="37" viewBox="0 0 100 37" fill="none" xmlns="http://www.w3.org/2000/svg">
<path d="M41.8 6.10425H46.75C46.8 6.10425 46.8 6.15429 46.8 6.15429V27.5207C46.8 27.5708 46.75 27.5708 46.75 27.5708H41.8C41.75 27.5708 41.75 27.5207 41.75 27.5207V6.20432C41.75 6.15429 41.8 6.10425 41.8 6.10425Z" fill="black"/>
<path d="M40.2 6.10425C40.25 6.10425 40.25 6.15429 40.25 6.20432L33.75 16.7625C33.7 16.8625 33.7 16.9626 33.75 17.0627L40.25 27.5207C40.3 27.5708 40.25 27.6208 40.25 27.6208H34.15C34.1 27.6208 34.05 27.5708 34 27.5207L30.05 21.0658C30 21.0157 29.95 21.0157 29.95 21.0658L26.25 27.5207C26.2 27.5708 26.15 27.6208 26.1 27.6208H20.35C20.3 27.6208 20.25 27.6208 20.3 27.5207L27.05 16.5123C27.1 16.4122 27.1 16.2621 27.05 16.162L21.15 6.20432C21.15 6.15429 21.15 6.10425 21.2 6.10425H27.1C27.15 6.10425 27.2 6.15429 27.2 6.20432L30.75 12.2089C30.8 12.259 30.85 12.259 30.9 12.2089L34.55 6.20432C34.6 6.15429 34.6 6.10425 34.7 6.10425H40.2Z" fill="black"/>
<path d="M71.3496 17.0626L82.2996 -0.000488281L99.9996 27.6208H87.9496L81.1996 17.0626H71.3496Z" fill="#FFCC33"/>
<path d="M18.5 6.10425H13.9C13.85 6.10425 13.8 6.15429 13.75 6.20432L0 27.5708V27.6208H5.6C5.65 27.6208 5.7 27.6208 5.7 27.5708L7.55 24.6685C7.6 24.6185 7.6 24.6185 7.65 24.6185H13.5C13.55 24.6185 13.55 24.6685 13.55 24.6685V27.5207C13.55 27.5708 13.55 27.6208 13.6 27.6208H18.5C18.55 27.6208 18.55 27.5708 18.55 27.5207V6.20432C18.55 6.15429 18.55 6.10425 18.5 6.10425ZM13.65 20.3652L10 20.4153C10 20.4153 9.95 20.4153 10 20.3652L13.85 14.2105C13.85 14.1604 13.9 14.2105 13.9 14.2105L13.65 20.3652Z" fill="black"/>
<path d="M49.7 27.6208H56.15C56.95 27.6208 57.8 27.4707 58.6 27.2205C61.6 26.2698 63.15 23.3175 63.15 20.7655C63.15 16.7124 60 15.3113 56.25 13.7101C55.6 13.4099 54.8 13.0596 54.8 12.1589C54.8 11.2582 55.65 10.8079 56.6 10.8079H61.7C61.75 10.8079 61.75 10.7578 61.75 10.7578V6.10424C61.75 6.0542 61.7 6.0542 61.7 6.0542H56.35C51.9 6.0542 49.25 8.70624 49.25 12.4091C49.25 15.6616 51.3 17.2128 54.3 18.4137C56.4 19.2644 57.75 19.6146 57.75 21.3159C57.75 22.2166 57.2 23.0673 56.1 23.0673H49.65C49.6 23.0673 49.6 23.1173 49.6 23.1173V27.6208H49.7Z" fill="black"/>
<path d="M65.9504 6.00415C64.9504 6.00415 64.1504 6.80477 64.1504 7.80554C64.1504 8.80631 64.9504 9.60692 65.9504 9.60692C66.9504 9.60692 67.7504 8.80631 67.7504 7.80554C67.7504 6.80477 66.9504 6.00415 65.9504 6.00415ZM65.9504 9.40677C65.0504 9.40677 64.3504 8.65619 64.3504 7.80554C64.3504 6.90484 65.1004 6.2043 65.9504 6.2043C66.8504 6.2043 67.5504 6.95488 67.5504 7.80554C67.5504 8.65619 66.8504 9.40677 65.9504 9.40677Z" fill="black"/>
<path d="M66.8008 8.80621L66.4008 7.85548C66.6508 7.80544 66.8008 7.55524 66.8008 7.30505C66.8008 7.1049 66.7008 6.95478 66.6008 6.85471C66.4508 6.75463 66.3008 6.70459 66.1008 6.70459H65.3008V8.80621H65.5508V7.90551H66.1508L66.5508 8.80621H66.8008ZM65.5508 7.70536V6.95478H66.0508C66.1508 6.95478 66.2508 6.95478 66.3508 7.00482C66.4508 7.05486 66.5008 7.15494 66.5008 7.30505C66.5008 7.40513 66.4508 7.50521 66.4008 7.55524C66.3008 7.65532 66.2008 7.65532 66.0508 7.65532H65.5508V7.70536Z" fill="black"/>
<path d="M4.30039 35.6269C3.70039 35.9271 3.25039 36.0272 2.65039 36.0272C1.00039 36.0272 0.150391 34.9764 0.150391 33.8755C0.150391 32.7747 1.10039 31.7239 2.75039 31.7239C3.35039 31.7239 3.90039 31.824 4.30039 32.0741V33.0249C3.85039 32.7747 3.35039 32.5745 2.80039 32.5745C1.90039 32.5745 1.25039 33.125 1.25039 33.8255C1.25039 34.5761 1.90039 35.1265 2.80039 35.1265C3.35039 35.1265 3.75039 34.9764 4.35039 34.6761V35.6269H4.30039Z" fill="black"/>
<path d="M10.4988 36.0272C8.89883 36.0272 8.04883 34.9263 8.04883 33.8755C8.04883 32.8748 8.89883 31.7239 10.4988 31.7239C12.0988 31.7239 12.9488 32.8748 12.9488 33.8755C12.9488 34.9764 12.0488 36.0272 10.4988 36.0272ZM10.4988 32.6246C9.69883 32.6246 9.14883 33.125 9.14883 33.8755C9.14883 34.6261 9.69883 35.1265 10.4988 35.1265C11.2988 35.1265 11.8488 34.6261 11.8488 33.8755C11.8488 33.125 11.2988 32.6246 10.4988 32.6246Z" fill="black"/>
<path d="M20.35 31.824H21.3V36.0272H20.25V33.4252L19.1 34.7262H18.95L17.8 33.4252V36.0272H16.75V31.824H17.7L19.1 33.3752L20.35 31.824Z" fill="black"/>
<path d="M29.2 31.824H30.15V36.0272H29.1V33.4252L27.95 34.7262H27.8L26.65 33.4252V36.0272H25.5V31.824H26.45L27.85 33.3752L29.2 31.824Z" fill="black"/>
<path d="M38.3 31.824V34.1758C38.3 35.5768 37.35 36.0272 36.15 36.0272C34.9 36.0272 34 35.4768 34 34.1758V31.7739H35.05V34.1758C35.05 34.7762 35.5 35.1265 36.1 35.1265C36.65 35.1265 37.2 34.8263 37.2 34.0757V31.7239H38.3V31.824Z" fill="black"/>
<path d="M46.6 35.9772H45.7L43.3 33.2751V35.9772H42.25V31.7739H43.25L45.55 34.3259V31.7739H46.6V35.9772Z" fill="black"/>
<path d="M51.7492 35.9772H50.6992V31.7739H51.7492V35.9772Z" fill="black"/>
<path d="M59.45 35.6269C58.85 35.9271 58.4 36.0272 57.75 36.0272C56.1 36.0272 55.25 34.9764 55.25 33.8755C55.25 32.7747 56.2 31.7239 57.85 31.7239C58.45 31.7239 59 31.824 59.4 32.0741V33.0249C58.95 32.7747 58.45 32.5745 57.9 32.5745C57 32.5745 56.35 33.125 56.35 33.8255C56.35 34.5761 57 35.1265 57.9 35.1265C58.45 35.1265 58.85 34.9764 59.45 34.6761V35.6269Z" fill="black"/>
<path d="M67.1488 35.9772H65.9988L65.6488 35.1265H63.7488L63.4488 35.9772H62.2988L64.0488 31.7739H65.2988L67.1488 35.9772ZM64.6488 32.7747L63.9988 34.3759H65.2988L64.6488 32.7747Z" fill="black"/>
<path d="M73.4508 32.5746H71.9008V35.9772H70.8508V32.5746H69.3008V31.824H73.5008V32.5746H73.4508Z" fill="black"/>
<path d="M77.8 35.9772H76.75V31.7739H77.8V35.9772Z" fill="black"/>
<path d="M83.4988 36.0272C81.8988 36.0272 81.0488 34.9263 81.0488 33.8755C81.0488 32.8748 81.8988 31.7239 83.4988 31.7239C85.0988 31.7239 85.9488 32.8748 85.9488 33.8755C85.9488 34.9764 85.0488 36.0272 83.4988 36.0272ZM83.4988 32.6246C82.6988 32.6246 82.1488 33.125 82.1488 33.8755C82.1488 34.6261 82.6988 35.1265 83.4988 35.1265C84.2988 35.1265 84.8488 34.6261 84.8488 33.8755C84.8488 33.125 84.2988 32.6246 83.4988 32.6246Z" fill="black"/>
<path d="M93.5004 35.9772H92.6004L90.2004 33.2751V35.9772H89.1504V31.7739H90.1504L92.4504 34.3259V31.7739H93.5004V35.9772Z" fill="black"/>
<path d="M99.7504 32.8748C99.1504 32.6246 98.7504 32.5245 98.4004 32.5245C98.0004 32.5245 97.7504 32.6746 97.7504 32.8748C97.7504 33.5253 99.9504 33.3251 99.9504 34.7762C99.9504 35.5768 99.2504 36.0272 98.3004 36.0272C97.5504 36.0272 97.2004 35.827 96.7504 35.6269V34.7262C97.3504 35.1265 97.7504 35.2766 98.2004 35.2766C98.6004 35.2766 98.8504 35.1265 98.8504 34.8763C98.8504 34.1758 96.6504 34.426 96.6504 32.9248C96.6504 32.2243 97.3004 31.7239 98.3004 31.7239C98.8004 31.7239 99.2004 31.824 99.7504 32.0241V32.8748Z" fill="black"/>
<path d="M81.2004 17.0627H79.4004L86.2004 27.6209H87.9504L81.2004 17.0627Z" fill="black"/>
<path d="M79.3996 17.0627L86.1996 27.6209H64.5996L71.3496 17.0627H79.3996Z" fill="#FF0033"/>
</svg>
