<svg width="135" height="47" viewBox="0 0 135 47" fill="none" xmlns="http://www.w3.org/2000/svg">
<path d="M76.9466 39.8279C73.3074 39.8279 71.1408 41.0547 68.8707 42.5633C68.2346 42.9869 67.6222 43.4083 67.0097 43.804C66.3003 44.2643 65.5895 44.6901 64.855 45.0586C63.2462 45.864 61.3829 46.4645 59.1276 46.4645L2.18359 46.499L92.6842 4.89919L133.013 39.8279H76.9466Z" fill="#004A94"/>
<path d="M93.4089 -0.00063324L3.32617 43.03L59.1214 42.997C65.4946 42.997 67.6419 36.3604 76.9412 36.3604H135.01L93.4089 -0.00063324Z" fill="#FFE014"/>
<path d="M6.35538 22.2815L5.81689 24.2549H11.119L10.5538 26.6776H5.13934L4.50395 28.982H10.8667L10.2691 31.4061H0L2.69024 21.3389C2.90475 20.3801 3.51869 19.853 4.11709 19.853L12.9541 19.8596L12.352 22.2815H6.35538Z" fill="#004A94"/>
<path d="M11.5 31.4061L14.3012 19.8596H17.7762L14.9743 31.4061H11.5Z" fill="#004A94"/>
<path d="M20.5602 29.285C22.4235 29.111 24.0153 28.313 24.3489 26.9387C24.6692 25.6202 23.3096 25.0483 22.7179 25.0483H21.436L20.4049 29.2989L20.5602 29.285ZM24.0212 22.9288C27.6701 22.9288 28.3639 25.2377 27.9637 26.8821C27.2773 29.713 23.6713 31.4044 20.0957 31.4044H16.418L19.2199 19.8587H22.6949L21.9501 22.9288H24.0212Z" fill="#004A94"/>
<path d="M29.9844 21.9798L30.4985 19.8596H33.9735L33.4594 21.9798H29.9844ZM27.6973 31.4061L29.7529 22.9291H33.2286L31.1716 31.4061H27.6973Z" fill="#004A94"/>
<path d="M40.3585 22.9305L39.8615 24.9788H37.9139L37.0876 28.3793C36.9708 28.8631 37.1276 29.2551 37.9538 29.2867H39.2157L37.8658 31.4061H36.2473C34.2236 31.4061 33.012 30.857 33.4913 28.8829L34.4381 24.9788H33.6081L34.1052 22.9305H34.9359L35.4211 20.9351L39.1262 19.8706L38.4109 22.9305H40.3585Z" fill="#004A94"/>
<path d="M52.1092 22.2824C51.9043 22.2824 51.5219 22.264 51.178 22.3052C50.8555 22.3426 50.4597 22.4388 50.3836 22.7574C50.331 22.9725 50.4139 23.1575 50.5234 23.3051C50.5781 23.3792 50.6424 23.4482 50.7053 23.5106L50.8895 23.6912L53.1855 26.0669C53.9829 26.8832 54.6885 27.6739 54.4237 28.7685C54.1826 29.7596 53.039 31.407 49.6261 31.407H45.1066L44.8145 28.9829H48.2444C48.45 28.9829 48.8302 29.0012 49.1756 28.9608C49.4974 28.9234 49.8931 28.8265 49.9701 28.5071C50.0226 28.2928 49.9397 28.1085 49.8295 27.9617C49.7755 27.8868 49.7104 27.8178 49.6476 27.7539L49.4634 27.5763L47.2421 25.2145C46.4669 24.3828 45.7613 23.5936 46.0261 22.4975C46.2665 21.5057 47.4108 19.8605 50.8244 19.8605H55.213L54.4489 22.2824H52.1092Z" fill="#004A94"/>
<path d="M70.8647 24.978C70.1154 24.978 69.707 25.0169 69.6153 25.3965C69.585 25.5213 69.6331 25.6351 69.6841 25.718C69.7078 25.7584 69.7374 25.7973 69.7662 25.8348L69.8409 25.9295L71.108 27.4734C71.5777 28.0416 71.8928 28.6509 71.7205 29.3601C71.4682 30.4011 70.1612 31.4061 68.3985 31.4061H64.7319L64.4102 29.2867H66.3252C66.4613 29.2867 66.7705 29.3263 67.0568 29.3212C67.2032 29.3175 67.3541 29.3028 67.4762 29.2617C67.596 29.2221 67.7188 29.145 67.755 28.9974C67.795 28.8344 67.7047 28.6656 67.6241 28.5445C67.542 28.4211 67.437 28.3015 67.3785 28.2214L66.1817 26.7055C65.7076 26.1159 65.3666 25.5646 65.5411 24.8466C65.6735 24.2997 66.5797 22.9298 69.0443 22.9298H72.7168L72.2249 24.978H70.8647Z" fill="#004A94"/>
<path d="M80.0422 22.9305L79.5451 24.9788H77.5975L76.7713 28.3793C76.6551 28.8631 76.8105 29.2551 77.6367 29.2867H78.8993L77.5494 31.4061H75.931C73.9065 31.4061 72.6956 30.857 73.1749 28.8829L74.1217 24.9788H73.2918L73.7888 22.9305H74.6188L75.0352 21.2126L78.6974 20.4418L78.0938 22.9305H80.0422Z" fill="#004A94"/>
<path d="M105.287 26.1314L104.007 31.4061H100.628L101.797 26.5887C102.045 25.3958 102.036 25.0793 100.408 25.05H99.722L98.1812 31.4061H94.8031L96.3438 25.05H93.8977L92.3547 31.4061H88.9766L91.0322 22.9305H102.039C105.157 22.9305 105.822 23.9231 105.287 26.1314Z" fill="#004A94"/>
<path d="M111.688 24.978C110.94 24.978 110.531 25.0169 110.439 25.3965C110.409 25.5213 110.458 25.6351 110.508 25.718C110.532 25.7584 110.561 25.7973 110.59 25.8348L110.665 25.9295L111.931 27.4734C112.402 28.0416 112.717 28.6509 112.545 29.3601C112.292 30.4011 110.985 31.4061 109.222 31.4061H105.555L105.234 29.2867H107.149C107.285 29.2867 108.178 29.3028 108.3 29.2617C108.42 29.2221 108.543 29.145 108.579 28.9974C108.618 28.8344 108.528 28.6656 108.448 28.5445C108.365 28.4211 108.261 28.3015 108.203 28.2214L107.005 26.7055C106.532 26.1159 106.19 25.5646 106.365 24.8466C106.498 24.2997 107.403 22.9298 109.868 22.9298H113.54L113.048 24.978H111.688Z" fill="#004A94"/>
<path d="M53.9316 34.4004C54.1942 34.255 54.4635 34.0252 54.8999 33.5018L57.0228 30.5234L55.0064 22.9126H58.7736L59.5266 27.2418L62.0837 22.9126H65.8998L58.4067 33.6346C58.099 34.0751 57.3712 34.415 56.9422 34.4165L53.9316 34.4004Z" fill="#004A94"/>
<path d="M85.5596 24.7804C83.4064 24.7804 83.0166 26.5468 83.2555 27.1194C84.3399 27.0254 85.9516 26.4095 86.2016 25.5836C86.3067 25.1879 86.3511 24.7804 85.5596 24.7804ZM84.6195 29.0524C84.9752 29.1698 85.7253 29.3409 86.9805 29.2866H88.218L86.9369 31.4053H84.584C80.9151 31.4053 79.4601 28.3975 79.8781 26.4388C80.3774 24.1014 81.8871 22.7278 85.8414 22.7278C89.6397 22.7278 89.7839 24.3377 89.3919 25.7576C88.8956 27.5555 86.911 28.3924 84.6357 28.8945C84.5899 28.9019 84.5618 28.9356 84.5618 28.9745C84.5618 29.0113 84.5862 29.0428 84.6195 29.0524Z" fill="#004A94"/>
</svg>
