<svg width="60" height="60" viewBox="0 0 60 60" fill="none" xmlns="http://www.w3.org/2000/svg">
<path d="M55.8618 15.0892C58.4324 19.6318 59.7428 24.5181 59.793 29.7466C59.8555 34.9639 58.5204 39.9924 55.7869 44.8349C52.9415 49.6276 49.2473 53.3027 44.7047 55.861C40.1621 58.4316 35.2825 59.742 30.0657 59.7922C24.8364 59.8547 19.7947 58.5196 14.9399 55.7861C10.1599 52.9407 6.48483 49.2536 3.91382 44.7226C1.3679 40.1673 0.0638676 35.2817 0.00134281 30.0656C-0.0484524 24.836 1.28666 19.7939 4.00742 14.9398C6.84051 10.1599 10.5347 6.48478 15.0897 3.91377C19.6323 1.36785 24.5185 0.0638161 29.7474 0.00128937C34.9643 -0.0485039 39.9932 1.28698 44.8357 4.00737C49.6281 6.84008 53.3035 10.5339 55.8618 15.0892Z" fill="#E30614"/>
<path d="M3.5293 30.0455V26.0207H17.12C18.5802 26.0832 19.7097 26.6328 20.5083 27.668C21.3197 28.7163 21.3507 29.9021 20.6019 31.2248L17.9437 35.3245H12.2154L14.4243 31.8051C15.248 30.6947 15.7471 30.108 15.9219 30.0455H3.5293ZM6.1501 30.6449C6.98613 30.6572 7.57918 30.9568 7.9285 31.5427C8.27819 32.129 8.44629 32.8602 8.43394 33.7337V38.5822H3.5293V30.6449H6.1501ZM41.4373 30.0084V26.021H54.9157C55.9516 26.0457 56.6694 26.3711 57.0685 26.9952C57.4807 27.6317 57.6926 28.3865 57.705 29.2603V30.0091L41.4373 30.0084ZM52.4259 30.6449H54.5787V35.3436H49.8613V32.5918C49.8864 32.0421 50.1548 31.5865 50.6662 31.2252C51.1653 30.8508 51.752 30.6572 52.4259 30.6449ZM22.4739 23.0071L27.9027 21.9026V26.021H36.3454C37.581 26.1086 38.4732 26.6886 39.022 27.762C39.584 28.8478 39.5653 29.9148 38.9662 30.9631L36.0834 35.3249H30.3551L32.5636 31.8055L34.1361 30.0458H25.3564C23.4968 30.0705 22.5361 29.3165 22.4736 27.7807L22.4739 23.0071Z" fill="white"/>
</svg>
