<svg width="20" height="20" viewBox="0 0 20 20" fill="none" xmlns="http://www.w3.org/2000/svg">
<path fill-rule="evenodd" clip-rule="evenodd" d="M19.544 11.1302C19.6769 11.1282 19.8039 11.1848 19.8908 11.2848C19.9777 11.3847 20.0155 11.5178 19.9941 11.6482C19.2028 16.3869 15.0585 20 10.065 20C4.50633 20 0 15.5228 0 10C0 4.47723 4.50633 0 10.065 0C10.0897 0 10.1144 9.63632e-05 10.1391 0.000267792C10.2645 0.00103922 10.3839 0.05385 10.4684 0.145939C10.5529 0.238029 10.5948 0.361018 10.584 0.485154C10.5735 0.590561 10.5687 0.697393 10.5687 0.80536C10.5687 1.91066 11.0713 2.89922 11.8618 3.55772C12.0101 3.6795 12.0635 3.8818 11.9944 4.06017C11.8486 4.44877 11.7693 4.86958 11.7693 5.30849C11.7693 7.29107 13.3874 8.89866 15.3828 8.89866C15.5176 8.89866 15.6507 8.89131 15.7817 8.87704C15.9709 8.85612 16.1527 8.95616 16.2353 9.12656C16.8236 10.3141 18.054 11.1308 19.4767 11.1308C19.4992 11.1308 19.5216 11.1306 19.544 11.1302ZM4.2476 10C3.7448 10 3.33658 10.4056 3.33658 10.9051C3.33658 11.4046 3.7448 11.8102 4.2476 11.8102C4.75039 11.8102 5.15858 11.4046 5.15858 10.9051C5.15858 10.4056 4.75039 10 4.2476 10ZM15.4832 12.9079V12.9078C15.4831 12.4083 15.0749 12.0028 14.5722 12.0028C14.0694 12.0028 13.6612 12.4084 13.6612 12.9079C13.6612 13.4074 14.0694 13.813 14.5722 13.813C15.075 13.813 15.4832 13.4074 15.4832 12.9079ZM7.32432 3.68075C6.57606 3.68075 5.96856 4.2843 5.96856 5.02771C5.96856 5.77112 6.57606 6.37468 7.32432 6.37468C8.07257 6.37468 8.68005 5.77112 8.68005 5.02771C8.68005 4.2843 8.07257 3.68075 7.32432 3.68075ZM9.64511 14.6968C8.89686 14.6968 8.28936 15.3003 8.28936 16.0437C8.28936 16.7871 8.89686 17.3907 9.64511 17.3907C10.3934 17.3907 11.0008 16.7871 11.0008 16.0437C11.0008 15.3003 10.3934 14.6968 9.64511 14.6968Z" fill="white"/>
</svg>
