<svg width="24" height="24" viewBox="0 0 24 24" fill="none" xmlns="http://www.w3.org/2000/svg">
<path fill-rule="evenodd" clip-rule="evenodd" d="M11.9882 0C18.6059 0 23.9765 5.37063 23.9765 11.9882C23.9765 17.9663 19.608 22.9231 13.8686 23.8116V15.4574H16.6588L17.1897 12.0004H17.1699L17.1737 11.9759H13.8562V9.75338C13.8562 8.80272 14.3377 7.87675 15.8193 7.87675H17.3255V4.93833C17.3255 4.93833 17.3201 4.93734 17.3095 4.93547V4.92617C17.3095 4.92617 15.9514 4.67924 14.6427 4.67924C11.9018 4.67924 10.124 6.34599 10.124 9.34614V11.9882H7.06208V15.4452H7.07812V15.4574H10.124V23.8283C4.38293 22.9394 0 17.9762 0 11.9882C0 5.37063 5.37063 0 11.9882 0Z" fill="white"/>
</svg>
