<svg width="25" height="24" viewBox="0 0 25 24" fill="none" xmlns="http://www.w3.org/2000/svg">
<mask id="mask0_236_1565" style="mask-type:luminance" maskUnits="userSpaceOnUse" x="0" y="0" width="25" height="24">
<path fill-rule="evenodd" clip-rule="evenodd" d="M0.34375 0.154297H24.1788V23.9865H0.34375V0.154297Z" fill="white"/>
</mask>
<g mask="url(#mask0_236_1565)">
<path fill-rule="evenodd" clip-rule="evenodd" d="M12.2613 0.154297C9.02468 0.154297 8.61883 0.168016 7.3477 0.226014C6.07922 0.28387 5.21289 0.485349 4.45485 0.779976C3.67116 1.08449 3.00655 1.49199 2.34397 2.15452C1.68144 2.8171 1.27394 3.48171 0.969429 4.26539C0.674802 5.02344 0.473323 5.88976 0.415467 7.15825C0.357469 8.42938 0.34375 8.83522 0.34375 12.0719C0.34375 15.3084 0.357469 15.7143 0.415467 16.9854C0.473323 18.2539 0.674802 19.1202 0.969429 19.8783C1.27394 20.662 1.68144 21.3266 2.34397 21.9891C3.00655 22.6517 3.67116 23.0592 4.45485 23.3637C5.21289 23.6583 6.07922 23.8598 7.3477 23.9177C8.61883 23.9756 9.02468 23.9894 12.2613 23.9894C15.4979 23.9894 15.9037 23.9756 17.1749 23.9177C18.4433 23.8598 19.3097 23.6583 20.0677 23.3637C20.8514 23.0592 21.516 22.6517 22.1786 21.9891C22.8411 21.3266 23.2486 20.662 23.5532 19.8783C23.8478 19.1202 24.0492 18.2539 24.1071 16.9854C24.1651 15.7143 24.1788 15.3084 24.1788 12.0719C24.1788 8.83522 24.1651 8.42938 24.1071 7.15825C24.0492 5.88976 23.8478 5.02344 23.5532 4.26539C23.2486 3.48171 22.8411 2.8171 22.1786 2.15452C21.516 1.49199 20.8514 1.08449 20.0677 0.779976C19.3097 0.485349 18.4433 0.28387 17.1749 0.226014C15.9037 0.168016 15.4979 0.154297 12.2613 0.154297ZM12.2624 2.30078C15.4445 2.30078 15.8215 2.31294 17.0781 2.37027C18.2401 2.42326 18.8711 2.61741 19.291 2.78061C19.8473 2.99681 20.2443 3.25505 20.6613 3.67211C21.0784 4.08912 21.3366 4.48612 21.5528 5.0424C21.716 5.46234 21.9102 6.09336 21.9632 7.25531C22.0205 8.51196 22.0327 8.8889 22.0327 12.071C22.0327 15.2531 22.0205 15.6301 21.9632 16.8867C21.9102 18.0487 21.716 18.6797 21.5528 19.0996C21.3366 19.6559 21.0784 20.0529 20.6613 20.4699C20.2443 20.887 19.8473 21.1452 19.291 21.3614C18.8711 21.5246 18.2401 21.7188 17.0781 21.7718C15.8217 21.8291 15.4448 21.8412 12.2624 21.8412C9.08007 21.8412 8.70323 21.8291 7.44671 21.7718C6.28477 21.7188 5.65374 21.5246 5.2338 21.3614C4.67752 21.1452 4.28052 20.887 3.86351 20.4699C3.44651 20.0529 3.18821 19.6559 2.97202 19.0996C2.80881 18.6797 2.61466 18.0487 2.56168 16.8867C2.50435 15.6301 2.49219 15.2531 2.49219 12.071C2.49219 8.8889 2.50435 8.51196 2.56168 7.25531C2.61466 6.09336 2.80881 5.46234 2.97202 5.0424C3.18821 4.48612 3.44646 4.08912 3.86351 3.67211C4.28052 3.25505 4.67752 2.99681 5.2338 2.78061C5.65374 2.61741 6.28477 2.42326 7.44671 2.37027C8.70337 2.31294 9.08031 2.30078 12.2624 2.30078Z" fill="white"/>
</g>
<path fill-rule="evenodd" clip-rule="evenodd" d="M12.2694 16.0427C10.0754 16.0427 8.29688 14.2641 8.29688 12.0702C8.29688 9.8762 10.0754 8.09766 12.2694 8.09766C14.4634 8.09766 16.2419 9.8762 16.2419 12.0702C16.2419 14.2641 14.4634 16.0427 12.2694 16.0427ZM12.2683 5.95117C8.88835 5.95117 6.14844 8.69108 6.14844 12.071C6.14844 15.4509 8.88835 18.1908 12.2683 18.1908C15.6481 18.1908 18.3881 15.4509 18.3881 12.071C18.3881 8.69108 15.6481 5.95117 12.2683 5.95117Z" fill="white"/>
<path fill-rule="evenodd" clip-rule="evenodd" d="M20.0555 5.70943C20.0555 6.49926 19.4152 7.13951 18.6254 7.13951C17.8356 7.13951 17.1953 6.49926 17.1953 5.70943C17.1953 4.91959 17.8356 4.2793 18.6254 4.2793C19.4152 4.2793 20.0555 4.91959 20.0555 5.70943Z" fill="white"/>
</svg>
