<svg width="24" height="24" viewBox="0 0 24 24" fill="none" xmlns="http://www.w3.org/2000/svg">
<path d="M0 1.70711C0 0.764599 0.7884 8.01086e-05 1.76099 8.01086e-05H22.069C23.0416 8.01086e-05 23.83 0.764599 23.83 1.70711V22.123C23.83 23.0659 23.0416 23.8301 22.069 23.8301H1.76099C0.7884 23.8301 0 23.0659 0 22.123V1.70711Z" fill="white"/>
<path fill-rule="evenodd" clip-rule="evenodd" d="M6.80734 19.625V9.22101H3.69198V19.625H6.80734ZM5.24964 7.80053C6.33603 7.80053 7.01222 7.00162 7.01222 6.00321C6.99198 4.98233 6.33604 4.20559 5.27025 4.20559C4.20458 4.20559 3.50781 4.98233 3.50781 6.00321C3.50781 7.00162 4.18386 7.80053 5.22934 7.80053H5.24964Z" fill="#040404"/>
<path fill-rule="evenodd" clip-rule="evenodd" d="M9.10938 19.625H12.5535V13.8886C12.5535 13.5816 12.5759 13.2749 12.6668 13.0554C12.9158 12.442 13.4825 11.8067 14.434 11.8067C15.6802 11.8067 16.1788 12.7487 16.1788 14.1296V19.625H19.6226V13.7351C19.6226 10.5799 17.9235 9.11176 15.6575 9.11176C13.7995 9.11176 12.9838 10.1413 12.5306 10.8425H12.5536V9.35281H9.10947C9.15466 10.3167 9.10938 19.625 9.10938 19.625Z" fill="#040404"/>
</svg>
